<svg width="868" height="450" viewBox="0 0 868 450" fill="none" xmlns="http://www.w3.org/2000/svg">
<g clip-path="url(#clip0_1_29)">
<path d="M678.851 445.384C678.851 443.895 679 442.108 679.298 440.619L679.596 439.428L679.894 438.236L680.192 437.194L680.34 436.449C680.936 434.067 681.532 431.833 682.277 429.6C683.617 425.579 684.957 421.41 686.447 417.091C689.277 408.604 692.404 399.52 696.128 389.841C699.702 380.162 703.872 369.887 708.489 359.166C710.872 353.805 713.255 348.296 715.936 342.786C717.277 339.957 718.617 337.128 720.106 334.298C721.596 331.469 723.085 328.491 724.574 325.513C729.936 315.685 736.043 305.559 742.298 295.731C748.553 286.052 754.957 276.671 760.617 268.481C761.362 267.439 762.106 266.396 762.851 265.354C763.596 264.312 764.34 263.269 765.085 262.376C766.575 260.44 768.064 258.653 769.553 257.164C772.383 253.888 775.064 251.208 777.298 248.825C781.915 244.209 785.34 241.082 787.872 241.976C789.064 242.422 789.957 243.762 790.404 245.996C790.851 248.23 791 251.357 790.702 254.931C790.404 258.504 789.66 262.525 788.766 266.694C788.319 268.63 787.872 270.715 787.426 272.948C787.277 273.991 786.979 275.033 786.83 275.927L786.681 276.671L786.532 277.565C786.383 278.16 786.234 278.756 786.085 279.5C783.702 289.775 780.128 300.943 776.106 312.111C772.085 323.279 767.468 334.298 763.149 344.275C762.553 345.764 761.957 347.105 761.213 348.594C760.617 350.083 759.872 351.572 759.277 352.912C757.936 355.741 756.596 358.719 755.255 361.4C752.575 367.058 749.596 372.419 746.766 377.631C740.957 388.054 734.851 397.584 728.745 406.221C722.638 414.858 716.383 422.601 710.426 429.6C707.447 433.024 704.468 436.3 701.638 439.279C700.298 440.768 698.957 442.257 697.617 443.746C697.021 444.49 696.426 445.235 695.83 445.979C695.234 446.724 694.936 447.617 694.787 448.362L678.851 445.384Z" fill="#14B6A1"/>
<path d="M687.043 445.831C687.191 444.341 687.638 443.001 688.234 441.661C688.532 440.917 688.83 440.47 688.979 440.023L689.723 438.385C690.766 436.3 691.808 434.365 693 432.429L699.404 421.261C703.574 413.815 707.745 406.221 711.766 398.627C719.809 383.438 727.553 367.952 735.149 352.465C738.872 344.722 742.596 336.83 746.468 329.236L758.085 306.155C761.957 298.412 765.83 290.668 769.553 282.776L772.383 276.82L775.064 271.013C776.851 267.29 778.787 263.567 780.723 259.696" stroke="#148B7A" stroke-width="1.6463" stroke-miterlimit="10" stroke-linecap="round" stroke-linejoin="round"/>
<path d="M760.915 300.347C765.532 298.709 770.149 296.923 774.766 295.285" stroke="#148B7A" stroke-width="1.6463" stroke-miterlimit="10" stroke-linecap="round" stroke-linejoin="round"/>
<path d="M755.404 311.218L747.213 297.965" stroke="#148B7A" stroke-width="1.6463" stroke-miterlimit="10" stroke-linecap="round" stroke-linejoin="round"/>
<path d="M743.489 335.043L757.638 333.405" stroke="#148B7A" stroke-width="1.6463" stroke-miterlimit="10" stroke-linecap="round" stroke-linejoin="round"/>
<path d="M735.149 352.316L727.404 336.085" stroke="#148B7A" stroke-width="1.6463" stroke-miterlimit="10" stroke-linecap="round" stroke-linejoin="round"/>
<path d="M725.617 371.674L743.936 367.952" stroke="#148B7A" stroke-width="1.6463" stroke-miterlimit="10" stroke-linecap="round" stroke-linejoin="round"/>
<path d="M709.83 402.349L705.511 389.543" stroke="#148B7A" stroke-width="1.6463" stroke-miterlimit="10" stroke-linecap="round" stroke-linejoin="round"/>
<path d="M693.149 443.746C692.851 442.406 692.851 440.917 693.149 439.725C693.447 438.534 694.043 437.343 694.638 436.3C695.83 434.216 697.021 432.131 698.362 430.195C700.894 426.175 703.574 422.601 706.106 419.176C707.298 417.538 708.489 415.9 709.532 414.262C710.574 412.624 711.319 411.284 712.064 409.944C713.553 407.114 714.447 404.583 715.043 402.349C718.17 389.692 715.638 378.375 724.128 369.292C725.468 367.952 730.234 362.442 735.745 363.484C738.574 363.931 740.064 366.016 747.511 373.908C756.596 383.587 758.979 385.225 761.362 384.778C764.34 384.183 765.681 380.609 766.872 377.928C769.702 371.525 767.319 368.398 770.298 362.293C771.192 360.506 772.83 357.081 775.511 356.784C778.34 356.337 779.681 359.464 781.766 359.166C783.702 358.868 784.149 355.741 784.745 351.572C785.34 347.402 786.085 342.339 788.319 338.17C790.702 333.554 796.511 328.789 801.128 330.427C804.106 331.469 805.745 334.894 807.234 338.17C812 348.445 808.426 355.741 813.192 359.315C813.489 359.613 815.723 361.251 817.957 360.506C821.532 359.315 820.489 353.061 825.106 346.062C826.298 344.275 829.128 339.957 832.255 340.404C835.532 340.85 835.681 346.062 839.255 346.807C842.234 347.402 843.723 343.829 849.532 340.553C850.723 339.808 859.66 334.745 864.426 337.872C867.702 339.957 868.894 345.913 867.702 350.678C866.213 356.784 860.702 360.506 854.447 364.527C848.043 368.547 840.745 372.717 835.085 380.013C833.298 382.396 831.66 384.927 831.809 387.905C832.106 392.968 837.617 394.011 838.957 398.18C839.404 399.669 839.404 401.456 838.809 403.243C838.362 405.03 837.17 407.263 835.83 409.05C833 412.922 828.83 416.347 824.66 417.687C819 419.474 814.979 417.389 810.213 415.155C805.447 412.773 799.936 410.242 791.745 410.39C791 410.39 788.319 410.539 785.787 410.986C783.255 411.582 780.575 412.624 779.979 414.411C778.787 417.985 786.085 420.367 788.319 428.11C790.106 434.067 788.17 442.406 782.957 446.426C781.021 447.915 778.936 448.66 774.319 448.362C769.851 448.064 762.851 446.724 751.681 443.597C740.66 440.47 734.553 438.385 730.234 437.045C725.915 435.705 723.532 435.258 720.106 435.258C717.128 435.258 713.404 435.407 709.383 437.194C707.447 438.087 705.362 439.279 703.574 441.065C703.277 441.363 702.383 442.108 701.936 442.555C701.638 442.852 701.489 443.001 701.34 443.299C701.191 443.597 700.894 443.746 700.745 444.044C700 445.086 699.404 446.575 699.553 448.213C698.511 446.873 697.468 446.277 696.575 445.979C695.234 445.384 694.34 445.086 693.149 443.746Z" fill="#EE5E43"/>
<path d="M696.575 444.341C696.575 444.341 696.574 444.044 696.872 443.448C697.17 442.852 697.617 442.108 698.213 441.214C698.511 440.768 698.957 440.321 699.404 439.874C700 439.427 700.596 438.832 701.192 438.236C702.383 437.194 703.723 436.003 705.362 434.662C708.638 432.131 712.957 429.748 718.021 427.068C723.234 424.388 728.745 421.41 734.404 418.431C745.723 412.475 757.489 405.923 767.319 400.414C777.149 394.755 785.191 390.288 789.511 388.65C793.83 386.863 800.234 384.183 807.234 380.907C814.234 377.482 821.979 373.163 828.83 368.994C835.681 364.676 842.085 360.506 846.553 357.528C851.021 354.401 853.851 352.465 853.851 352.465" stroke="#C4422B" stroke-width="1.784" stroke-miterlimit="10" stroke-linecap="round" stroke-linejoin="round"/>
<path d="M789.66 388.799C800.383 393.415 811.255 397.733 822.872 401.158L789.66 388.799Z" fill="#F29C1F"/>
<path d="M789.66 388.799C800.383 393.415 811.255 397.733 822.872 401.158" stroke="#C4422B" stroke-width="1.784" stroke-miterlimit="10" stroke-linecap="round" stroke-linejoin="round"/>
<path d="M795.766 386.118C797.255 373.163 798.149 360.208 797.404 347.849L795.766 386.118Z" fill="#F29C1F"/>
<path d="M795.766 386.118C797.255 373.163 798.149 360.208 797.404 347.849" stroke="#C4422B" stroke-width="1.784" stroke-miterlimit="10" stroke-linecap="round" stroke-linejoin="round"/>
<path d="M733.362 419.176C745.128 424.09 756.894 428.855 769.106 433.322L733.362 419.176Z" fill="#F29C1F"/>
<path d="M733.362 419.176C745.128 424.09 756.894 428.855 769.106 433.322" stroke="#C4422B" stroke-width="1.784" stroke-miterlimit="10" stroke-linecap="round" stroke-linejoin="round"/>
<path d="M738.425 416.496C738.277 404.136 737.83 391.926 737.085 379.715" stroke="#C4422B" stroke-width="1.784" stroke-miterlimit="10" stroke-linecap="round" stroke-linejoin="round"/>
<path d="M778.043 394.457C778.192 386.267 778.34 378.226 778.34 370.036L778.043 394.457Z" fill="#F29C1F"/>
<path d="M778.043 394.457C778.192 386.267 778.34 378.226 778.34 370.036" stroke="#C4422B" stroke-width="1.784" stroke-miterlimit="10" stroke-linecap="round" stroke-linejoin="round"/>
<path d="M672.149 443.15C666.34 443.448 652.489 443.448 637.745 435.258C622.106 426.621 614.511 413.964 611.83 408.901C614.511 410.837 618.681 413.666 624.192 416.645C635.362 422.75 641.617 423.941 650.255 428.11C655.766 430.642 663.511 435.109 672.149 443.15Z" fill="#12A189"/>
<path d="M672.149 442.704C663.511 439.279 652.34 433.471 642.809 423.048C639.83 419.772 635.66 415.156 632.383 407.859C628.809 399.669 628.362 392.373 628.362 387.905C630.745 392.373 634.915 399.222 641.468 406.37C647.574 412.922 651.298 414.858 657.106 420.814C661.277 425.132 667.085 432.131 672.149 442.704Z" fill="#12A189"/>
<path d="M672.149 441.959C667.681 438.385 657.255 429.004 651.596 413.22C645.638 396.393 648.468 381.8 649.809 376.291C655.468 387.31 661.128 400.711 665.894 416.049C668.574 425.281 670.66 433.918 672.149 441.959Z" fill="#12A189"/>
<path d="M673.043 443.746C663.213 427.962 662.617 416.794 664.106 409.497C665 405.03 666.936 400.116 666.936 391.926C666.936 384.481 665.298 378.524 663.809 374.653C667.234 377.482 672.298 382.247 675.128 389.692C676.766 393.862 677.809 398.925 676.17 417.24C675.723 424.09 674.681 433.025 673.043 443.746Z" fill="#12A189"/>
<path d="M673.043 443.299C672.298 427.664 674.681 415.751 676.766 408.157C679.447 398.627 682.277 394.159 684.511 391.33C689.723 384.629 696.128 381.056 700 379.418C697.617 382.694 694.191 387.905 691.511 394.904C687.638 405.03 688.234 410.688 685.553 419.772C683.915 425.579 680.489 433.918 673.043 443.299Z" fill="#12A189"/>
<path d="M671.702 443.15C672.745 437.492 676.17 423.941 687.787 411.582C700 398.478 714.149 394.308 719.66 392.968C712.511 403.094 703.277 414.262 691.809 425.579C684.809 432.429 678.106 438.236 671.702 443.15Z" fill="#12A189"/>
<path d="M669.468 443.15C673.043 438.236 682.128 426.77 698.66 419.772C714.894 412.922 729.192 414.262 735.298 415.156C715.192 421.559 703.723 428.557 696.872 434.216C693.745 436.747 685.404 444.044 674.532 443.746C672.447 443.746 670.66 443.448 669.468 443.15Z" fill="#12A189"/>
<path d="M95.4681 433.471C83.1064 434.216 73.2766 432.28 67.4681 430.791C62.2553 429.451 58.2341 427.813 55.8511 426.919C47.2128 423.345 27.7021 413.815 28.5958 404.881C29.3404 396.244 48.5532 392.968 50.9362 392.67C44.8298 392.521 34.5532 391.33 23.383 385.672C21.2979 384.629 15.3404 381.502 9.8298 377.333C7.14895 375.248 4.4681 372.866 2.68087 370.334C1.78725 369.143 1.04257 367.803 0.595761 366.463C0.148952 365.122 -0.14892 363.782 1.58995e-05 362.293C0.148952 354.55 10.5745 349.04 23.8298 348.296C22.3404 346.509 20.1064 343.977 18.1702 341.148C16.2341 338.17 14.149 334.894 12.3617 331.32C11.9149 330.427 10.8724 328.342 9.68087 325.96C8.48938 323.428 7.14895 320.45 5.95746 317.323C3.27661 311.069 0.297888 303.326 3.57448 298.561C5.51065 295.582 9.23406 294.391 12.8085 293.944C16.383 293.498 20.2553 293.944 22.1915 294.391C25.3192 294.987 28.4468 296.029 31.1277 297.667C33.8085 299.156 36.1915 300.943 38.2766 302.73C42.2979 306.304 44.8298 309.729 46.1702 311.516C50.9362 317.919 51.6809 319.854 52.7234 323.577C54.3617 315.536 57.4894 309.58 61.2128 306.006C64.9362 302.432 69.2553 301.092 72.8298 301.539C74.0213 301.688 75.2128 302.134 76.2553 302.73C77.149 303.326 78.3404 304.219 79.383 305.41C81.3192 307.644 83.1064 310.622 84.5958 313.6C87.5745 319.557 89.3617 325.811 89.8085 327.449C94.2766 343.084 91.149 356.039 89.0639 362.293C91.5958 357.528 100.532 341.446 108.574 343.977C113.192 345.467 116.468 352.763 118.404 361.4C120.34 369.887 120.936 379.715 120.936 385.821C120.936 389.097 120.638 395.946 118.702 404.136C115.872 416.049 111.255 423.643 110.362 425.132C108.426 428.408 106.489 430.94 105.149 432.727C102.617 432.727 99.4894 433.173 95.4681 433.471Z" fill="#EE5F43"/>
<path d="M112.745 446.873C112.745 446.873 111.553 444.788 109.617 441.066C108.574 439.13 107.532 436.896 106.043 434.365C104.702 431.833 102.915 429.004 101.128 425.877C93.6809 413.369 83.2553 396.989 71.7872 380.758C60.3192 364.527 48.1064 348.445 38.4255 335.788C33.5106 329.384 29.4894 323.875 26.2128 319.705C22.9362 315.536 20.5532 312.856 19.6596 311.664" stroke="#C4422B" stroke-width="2.0192" stroke-miterlimit="10" stroke-linecap="round" stroke-linejoin="round"/>
<path d="M58.2341 362.144C61.6596 346.509 64.6383 330.576 67.6171 314.792" stroke="#C4422B" stroke-width="2.0192" stroke-miterlimit="10" stroke-linecap="round" stroke-linejoin="round"/>
<path d="M61.8085 367.803C46.1702 366.314 30.5319 365.271 15.0426 364.378" stroke="#C4422B" stroke-width="2.0192" stroke-miterlimit="10" stroke-linecap="round" stroke-linejoin="round"/>
<path d="M92.6383 411.135C96.9575 396.691 100.681 381.8 104.106 366.76" stroke="#C4422B" stroke-width="2.0192" stroke-miterlimit="10" stroke-linecap="round" stroke-linejoin="round"/>
<path d="M95.1702 416.049C78.6383 413.22 62.2553 411.284 46.0213 409.795" stroke="#C4422B" stroke-width="2.0192" stroke-miterlimit="10" stroke-linecap="round" stroke-linejoin="round"/>
<path d="M115.872 447.766C115.277 446.277 114.234 444.937 113.34 443.895C112.149 442.257 110.957 440.619 109.915 438.832C108.872 437.194 107.979 435.258 107.085 433.769C105.149 430.642 103.213 427.813 101.277 425.281C97.4043 420.367 93.383 416.794 90.2553 414.858C85.1915 411.731 79.9787 409.944 75.3617 407.71C70.7447 405.328 66.7234 402.796 63.8936 397.138C63 395.5 59.7234 388.948 62.1064 383.885C63.4468 381.353 65.5319 380.609 74.766 376.588C85.9362 371.674 88.1702 370.334 88.617 368.101C89.0638 365.271 86.6809 362.591 84.8936 360.506C80.5745 355.592 77.1489 356.635 73.1277 351.423C71.9362 349.934 69.8511 346.956 70.5958 344.275C71.3404 341.446 74.4681 341.744 75.0638 339.659C75.6596 337.723 73.2766 335.788 70.2979 333.107C67.3192 330.427 63.5958 326.704 61.5106 321.492C59.1277 315.387 58.9787 307.495 62.7021 304.964C65.0851 303.177 68.5107 304.07 71.7872 304.815C81.9149 307.197 85.1915 314.196 90.4043 312.558C90.8511 312.409 93.2341 311.664 93.8298 309.729C95.0213 306.453 89.8085 303.623 87.5745 296.327C87.2766 295.434 86.8298 293.796 86.5319 292.158C86.383 290.52 86.5319 289.179 87.4255 287.988C88.4681 286.648 89.9575 286.946 91.5958 287.244C93.0851 287.541 94.7234 287.69 96.0638 286.499C98.2979 284.563 96.6596 281.138 98.4468 275.182C98.5958 274.586 99.3404 272.055 100.681 269.524C102.021 266.992 103.809 264.61 106.34 264.014C108.128 263.567 110.064 264.163 112 265.354C113.936 266.545 115.574 268.332 116.766 270.417C119.596 275.778 118.255 281.287 117.213 286.499C117.064 287.244 116.915 287.69 116.915 288.584C116.766 289.477 116.766 290.371 116.617 291.264C116.468 293.051 116.319 294.838 116.17 296.774C116.021 300.496 116.319 304.368 117.362 308.24C118.106 310.771 119 313.154 121.234 314.494C125.106 316.727 128.83 313.6 132.553 314.792C135.234 315.685 137.617 318.365 139.106 321.492C140.596 324.768 141.34 328.491 140.447 331.618C139.404 335.788 135.979 337.872 132.106 340.404C128.234 342.935 123.915 346.062 120.936 352.614C120.34 353.805 117.213 361.4 120.043 363.633C122.574 365.718 127.34 360.804 134.489 361.698C140 362.293 146.404 366.165 147.894 370.93C148.489 372.717 148.34 374.504 146.702 377.929C144.915 381.353 141.638 386.267 135.83 394.606C124.213 411.731 121.83 413.518 120.043 419.474C119.298 422.005 118.702 425.281 118.553 429.302C118.553 430.344 118.553 431.387 118.702 432.429C118.702 433.471 118.851 434.811 119 435.556C119.298 437.492 119.894 439.428 121.234 441.512C121.532 441.81 121.681 442.257 121.979 442.555C122.277 443.15 122.723 443.746 123.021 444.49C121.532 444.342 120.489 445.384 119.447 446.277C118.404 447.022 117.362 447.766 115.872 447.766Z" fill="#13A995"/>
<path d="M119.149 444.193C119.149 444.193 119 444.044 118.851 443.597C118.702 443.299 118.553 442.852 118.255 442.257C117.66 441.066 116.766 438.981 116.17 436.301C115.574 433.173 114.83 429.451 113.936 425.281C112.298 416.794 110.213 406.37 108.426 395.798C106.489 385.374 104.702 374.801 103.66 365.867C102.617 356.933 102.17 349.636 102.468 345.764C102.766 341.595 103.064 335.341 103.809 328.342C104.404 321.344 105.298 313.6 106.043 306.304C106.34 302.581 106.787 299.156 107.085 295.88C107.383 292.604 107.532 289.775 107.83 287.244C107.979 285.01 108.277 283.074 108.574 281.734C108.872 280.394 108.872 279.649 108.872 279.649" stroke="#148B7A" stroke-width="1.6235" stroke-miterlimit="10" stroke-linecap="round" stroke-linejoin="round"/>
<path d="M102.617 345.913C110.511 338.915 118.702 332.512 127.043 326.257L102.617 345.913Z" fill="#F29C1F"/>
<path d="M102.617 345.913C110.511 338.915 118.702 332.512 127.043 326.257" stroke="#148B7A" stroke-width="1.6235" stroke-miterlimit="10" stroke-linecap="round" stroke-linejoin="round"/>
<path d="M102.915 339.808C92.9362 333.256 83.2553 326.109 73.5745 318.961L102.915 339.808Z" fill="#F29C1F"/>
<path d="M102.915 339.808C92.9362 333.256 83.2553 326.109 73.5745 318.961" stroke="#148B7A" stroke-width="1.6235" stroke-miterlimit="10" stroke-linecap="round" stroke-linejoin="round"/>
<path d="M109.915 403.392C117.362 394.457 124.809 385.821 132.404 377.482L109.915 403.392Z" fill="#F29C1F"/>
<path d="M109.915 403.392C117.362 394.457 124.809 385.821 132.404 377.482" stroke="#148B7A" stroke-width="1.6235" stroke-miterlimit="10" stroke-linecap="round" stroke-linejoin="round"/>
<path d="M109.021 398.18C98.2979 395.053 87.5745 391.777 76.8511 388.352L109.021 398.18Z" fill="#F29C1F"/>
<path d="M109.021 398.18C98.2979 395.053 87.5745 391.777 76.8511 388.352" stroke="#148B7A" stroke-width="1.6235" stroke-miterlimit="10" stroke-linecap="round" stroke-linejoin="round"/>
<path d="M102.915 357.528C96.2128 354.401 89.5107 351.125 82.8085 347.849L102.915 357.528Z" fill="#F29C1F"/>
<path d="M102.915 357.528C96.2128 354.401 89.5107 351.125 82.8085 347.849" stroke="#148B7A" stroke-width="1.6235" stroke-miterlimit="10" stroke-linecap="round" stroke-linejoin="round"/>
<path d="M126.149 445.979C126.149 444.044 127.043 411.284 133.149 398.329C134.192 396.244 135.532 393.266 138.66 390.735C142.681 387.459 145.362 388.501 150.872 385.225C155.489 382.545 160.851 377.78 159.957 375.397C159.362 373.759 156.085 373.163 153.404 373.759C148.787 374.801 148.638 379.566 143.426 381.056C141.192 381.651 138.064 381.8 137.17 380.311C136.277 378.822 137.915 376.29 138.511 375.546C140.894 372.121 144.021 370.632 149.83 368.101C158.17 364.527 161 363.484 165.021 360.804C170.979 356.784 170.979 354.848 170.979 354.103C170.83 351.87 168 349.636 165.468 349.636C163.979 349.636 163.234 350.529 158.17 355.592C156.234 357.528 154.298 359.315 151.617 361.251C148.489 363.484 147 363.931 145.809 363.335C145.064 363.038 144.468 362.293 144.319 361.549C143.277 357.379 154 350.976 157.574 348.891C161.447 346.658 163.979 345.467 168 342.191C172.915 338.17 173.064 336.383 172.915 335.49C172.617 334.001 170.83 332.958 169.34 332.66C168.298 332.512 166.511 332.66 162.043 336.383C159.213 338.766 157.128 341.148 155.936 342.488C151.617 347.551 150.426 350.083 148.34 349.934C147.298 349.934 146.106 349.189 145.66 348.147C143.723 343.084 160.255 329.98 169.043 323.875C172.617 321.343 176.638 318.812 176.34 315.685C176.192 313.153 173.511 310.771 170.83 310.622C167.404 310.473 165.021 314.047 163.383 316.429C161 320.003 161.745 321.195 158.766 326.108C155.638 331.469 153.553 332.214 152.66 332.363C151.468 332.66 149.085 332.66 148.192 331.469C147.745 330.874 147.149 329.236 151.766 321.046C155.936 313.749 157.872 312.409 157.872 308.835C157.872 305.559 156.383 301.688 154.149 301.39C152.064 301.092 149.979 303.921 148.936 306.006C147.298 309.431 148.638 311.069 147.298 317.919C146.553 321.641 145.809 322.832 144.915 323.13C143.426 323.577 141.787 322.088 141.34 321.641C136.872 317.472 140.149 311.664 136.277 304.219C135.383 302.432 133.447 298.858 129.426 297.518C126.149 296.476 121.383 297.071 119.149 300.496C116.915 303.772 118.106 308.388 119.745 310.92C122.277 314.94 125.404 313.749 132.404 318.812C135.085 320.748 141.043 325.066 140.298 329.384C140.298 329.682 139.851 331.618 138.511 332.214C135.681 333.405 132.553 327.598 124.809 324.619C122.723 323.875 117.511 321.79 115.426 324.024C113.787 325.662 114.383 329.533 116.17 331.618C117.362 333.107 118.702 333.107 124.66 334.596C131.957 336.383 133.447 337.128 134.787 338.319C136.723 339.957 138.809 343.084 137.766 344.871C136.872 346.509 133.894 346.509 131.213 346.509C123.915 346.36 121.979 343.531 115.723 343.829C113.787 343.829 109.17 344.126 107.979 346.807C107.234 348.445 107.979 350.827 109.319 352.167C111.702 354.55 116.17 353.805 120.192 353.061C123.915 352.316 124.064 351.721 127.936 351.125C131.66 350.678 134.192 350.38 135.979 352.018C137.319 353.359 138.064 356.039 137.17 357.528C136.277 359.017 134.043 358.719 125.553 358.57C123.766 358.57 121.085 358.57 115.723 358.719C108.277 358.868 106.489 359.017 105.596 360.357C104.553 361.846 104.702 364.527 106.043 365.718C106.489 366.165 107.383 366.611 111.553 366.165C115.426 365.718 115.872 365.122 118.851 364.825C123.468 364.229 126.149 364.973 127.638 365.569C129.128 366.165 130.766 366.76 131.064 367.952C131.362 369.59 129.723 371.377 127.936 372.419C125.255 373.908 123.319 372.866 115.723 371.972C107.83 371.079 105.894 371.525 104.553 372.717C104.404 372.866 102.021 374.801 102.319 377.035C102.617 379.12 104.851 380.162 106.043 380.758C109.915 382.694 114.234 381.651 115.723 381.353C118.553 380.609 119.745 379.566 122.277 379.864C123.021 380.013 124.809 380.162 126.149 381.502C127.638 382.991 128.085 385.225 127.489 389.097C126.596 395.351 123.915 399.073 122.277 402.796C120.34 406.817 119.894 411.582 118.851 421.112C118.106 427.366 117.66 435.854 118.553 445.979C120.787 445.831 123.468 445.831 126.149 445.979Z" fill="#F9AE26"/>
<path d="M735.553 256.42H419.511C408.341 256.42 399.107 247.336 399.107 236.019V20.4004C399.107 9.2323 408.192 0 419.511 0H735.405C746.575 0 755.809 9.08339 755.809 20.4004V236.168C755.809 247.336 746.724 256.42 735.553 256.42Z" fill="#BEC6C4"/>
<path d="M727.362 250.91H427.702C416.532 250.91 407.298 241.827 407.298 230.51V25.91C407.298 14.7419 416.383 5.50958 427.702 5.50958H727.362C738.532 5.50958 747.766 14.593 747.766 25.91V230.361C747.617 241.678 738.532 250.91 727.362 250.91Z" fill="#FEFEFE"/>
<mask id="mask0_1_29" style="mask-type:luminance" maskUnits="userSpaceOnUse" x="574" y="104" width="71" height="118">
<path d="M644.405 104.087C636.064 104.087 616.702 104.236 615.362 104.236C617.447 107.958 616.851 112.128 614.319 114.51C612.532 116.148 609.554 117.191 607.319 116.148C604.341 114.659 602.851 109.447 605.681 104.236C605.234 104.236 604.49 104.236 603.596 104.236C597.49 104.087 594.511 103.938 592.575 104.384C590.192 104.831 587.66 105.278 585.575 107.363C584.383 108.554 583.639 109.894 583.192 111.383C582.745 112.723 582.745 113.915 582.745 114.361C582.745 117.191 582.894 145.483 582.894 146.228C580.213 145.632 577.532 146.674 575.894 148.61C574.256 150.695 573.66 153.822 575.298 156.353C576.788 158.885 579.915 160.076 582.894 159.183C582.894 159.183 583.043 219.788 583.043 221.277C603.596 221.277 624 221.128 644.554 221.128V104.087H644.405Z" fill="white"/>
</mask>
<g mask="url(#mask0_1_29)">
<path d="M585.873 203.706H583.192C575.894 203.706 570.085 197.899 569.936 190.602V189.113H599.128V190.453C599.128 197.75 593.319 203.557 585.873 203.706Z" fill="#282E5B"/>
<path d="M619.715 129.26C639.316 109.663 639.316 77.8902 619.715 58.2931C600.114 38.696 568.335 38.6959 548.734 58.293C529.134 77.8901 529.134 109.663 548.734 129.26C568.335 148.858 600.114 148.858 619.715 129.26Z" fill="#FABB49"/>
<path d="M613.575 169.904H555.341V113.319H613.426L613.575 169.904Z" fill="#FABB49"/>
<path d="M596.894 154.864H595.256V92.7697H596.745L596.894 154.864Z" fill="#282E5B"/>
<path d="M613.575 178.094L555.192 169.755V173.776L612.979 182.114C613.426 180.774 613.575 179.434 613.575 178.094Z" fill="#BEC6C4"/>
<path d="M613.575 170.053L555.341 161.714V165.883L613.575 174.222V170.053Z" fill="#BEC6C4"/>
<path d="M613.575 154.864H555.192V157.842L613.575 166.181V154.864Z" fill="#BEC6C4"/>
<path d="M611.936 185.837L555.341 177.796V177.945C555.341 179.285 555.49 180.625 555.788 181.817L609.702 189.56C610.596 188.517 611.341 187.177 611.936 185.837Z" fill="#BEC6C4"/>
<path d="M557.128 185.986C560.256 192.836 567.107 197.452 575 197.452H593.915C598.532 197.452 602.851 195.814 606.277 192.985L557.128 185.986Z" fill="#BEC6C4"/>
<path d="M613.575 166.181L555.192 157.842L555.341 161.714L613.575 170.053V166.181Z" fill="#EEEFF0"/>
<path d="M613.575 177.647V174.222L555.192 165.883V169.755L613.575 178.094C613.575 177.945 613.575 177.796 613.575 177.647Z" fill="#EEEFF0"/>
<path d="M613.128 182.114L555.341 173.776V177.647L611.936 185.688C612.383 184.646 612.83 183.455 613.128 182.114Z" fill="#EEEFF0"/>
<path d="M609.702 189.56L555.788 181.817C556.085 183.306 556.532 184.646 557.128 185.986L606.426 192.985C607.617 192.091 608.66 190.9 609.702 189.56Z" fill="#EEEFF0"/>
</g>
<mask id="mask1_1_29" style="mask-type:luminance" maskUnits="userSpaceOnUse" x="523" y="29" width="101" height="160">
<path d="M580.958 90.0894C585.873 90.3872 597.341 91.1317 598.234 91.2806C597.341 94.4077 598.383 97.6837 600.915 99.4706C602.851 100.811 605.532 101.257 607.766 99.9173C610.298 98.4282 611.639 95.3011 610.894 92.1741C611.49 92.1741 618.49 92.6208 621.468 92.9186C622.362 90.3872 622.958 86.8134 623.256 82.644C625.192 53.9047 602.405 29.186 573.064 29.186C548.192 29.186 526.745 48.0973 523.617 72.816C521.383 90.8339 528.681 107.512 541.49 117.935L540.149 138.336L538.66 161.267C538.511 162.608 538.66 163.948 538.809 165.288C538.958 166.777 539.405 168.117 539.851 169.457C542.234 175.711 547.596 180.477 554.447 181.817C556.532 185.39 560.107 187.922 564.426 188.666C565.171 175.116 566.66 146.525 566.66 145.781C564.277 146.525 561.596 145.632 560.256 143.696C558.617 141.314 558.915 137.889 561.149 135.953C562.936 134.315 565.617 134.017 567.851 135.208C567.851 134.315 569.639 110.639 570.383 99.6195C574.256 92.4719 578.128 89.7915 580.958 90.0894Z" fill="white"/>
</mask>
<g mask="url(#mask1_1_29)">
<path d="M556.979 181.966C556.085 181.966 555.341 181.817 554.447 181.668C556.83 185.688 561 188.369 566.064 188.815C570.979 189.113 575.596 186.88 578.426 183.306C577.532 183.306 576.788 183.306 575.894 183.306L556.979 181.966Z" fill="#282E5B"/>
<path d="M623.405 82.3462C625.192 54.7982 604.341 30.824 576.639 29.0371C549.085 27.2502 525.107 48.0973 523.319 75.7942C522.277 92.6208 529.426 107.958 541.49 117.786L540.149 138.187L556.83 139.229L560.851 78.9213C560.851 78.4746 560.851 76.8366 562.192 75.4964C563.085 74.7519 564.426 74.1562 565.766 74.6029C567.405 75.0497 568 76.9855 568.596 78.3256C568.745 78.9213 569.043 79.6658 569.192 79.8147C569.49 79.6658 570.085 78.4746 570.383 77.8789C571.128 76.3898 572.022 74.9008 573.362 75.0497C574.702 75.1986 575.298 76.5387 575.745 78.0278C576.043 78.6235 576.49 79.8147 576.639 79.9636C576.788 79.8147 577.383 78.9213 577.532 78.3256C578.277 76.8366 579.171 75.0497 581.107 74.7519C582.745 74.454 584.532 75.4964 585.277 77.1344C585.873 78.1767 585.724 79.368 585.724 79.9636L581.702 141.016L598.383 142.058L599.724 121.658C612.979 113.468 622.213 99.1728 623.405 82.3462Z" fill="#FABB49"/>
<path d="M584.234 78.7724C584.234 78.4746 584.085 78.1768 583.936 77.73C583.49 76.8366 582.298 76.092 581.405 76.2409C580.362 76.3899 579.766 77.73 579.17 78.9213C578.575 80.2615 577.83 81.4527 576.639 81.4527C575.298 81.3038 574.851 79.9636 574.256 78.6235C573.958 78.0278 573.511 76.8366 573.213 76.6877C572.915 76.6877 572.022 78.1768 571.724 78.7724C570.979 80.1126 570.234 81.6016 568.894 81.4527C567.702 81.3038 567.256 80.1126 566.958 78.7724C566.511 77.5811 566.213 76.3899 565.319 76.092C564.724 75.9431 563.83 76.092 563.383 76.6877C562.936 77.1344 562.639 77.73 562.639 78.1768L558.617 139.229L580.362 140.718L584.234 78.7724Z" fill="#FABB49"/>
<path d="M562.49 78.3257C562.49 77.8789 562.639 77.2833 563.234 76.8366C563.83 76.2409 564.724 76.092 565.17 76.2409C566.064 76.5388 566.511 77.73 566.809 78.9213C567.256 80.1126 567.702 81.4527 568.745 81.6016C570.085 81.7505 570.83 80.2615 571.575 78.9213C571.873 78.3257 572.766 76.8366 573.064 76.8366C573.362 76.9855 573.809 78.1768 574.107 78.7724C574.702 80.1126 575.149 81.6016 576.49 81.6016C577.681 81.6016 578.426 80.4104 579.022 79.0702C579.617 77.8789 580.362 76.5388 581.256 76.3899C582.149 76.2409 583.341 76.9855 583.788 77.8789C583.936 78.1767 584.085 78.4746 584.085 78.9213L580.213 140.718L581.851 140.867L585.873 79.8147C586.022 79.2191 586.022 78.1767 585.426 76.9855C584.681 75.3475 582.745 74.454 581.256 74.603C579.468 74.9008 578.426 76.6877 577.681 78.1767C577.383 78.7724 576.936 79.6658 576.788 79.8147C576.49 79.6658 576.043 78.6235 575.894 77.8789C575.298 76.3899 574.702 75.0497 573.511 74.9008C572.171 74.7519 571.277 76.2409 570.532 77.73C570.234 78.3257 569.49 79.5169 569.341 79.6658C569.192 79.5169 568.894 78.7724 568.745 78.1767C568.298 76.6877 567.702 74.9008 565.915 74.454C564.575 74.0073 563.085 74.603 562.341 75.3475C561 76.5388 561 78.3257 561 78.7724L556.979 139.08L558.617 139.229L562.49 78.3257Z" fill="#282E5B"/>
<path d="M539.256 152.78L538.958 156.8L596.149 169.16C596.596 167.819 596.745 166.628 596.894 165.139L539.256 152.78Z" fill="#BEC6C4"/>
<path d="M539.702 144.888L539.553 148.908L597.192 161.267L597.341 157.247L539.702 144.888Z" fill="#BEC6C4"/>
<path d="M580.213 140.718L540.149 138.187L540 140.867L597.639 153.375L598.383 142.058L580.213 140.718Z" fill="#BEC6C4"/>
<path d="M538.66 160.97C538.511 162.31 538.66 163.65 538.809 164.99L592.128 176.456C593.022 175.414 593.915 174.222 594.66 172.882L538.809 160.821L538.66 160.97Z" fill="#BEC6C4"/>
<path d="M539.851 169.16C542.234 175.414 547.596 180.179 554.447 181.519C555.192 181.668 556.085 181.817 556.979 181.817L575.894 183.008C576.788 183.008 577.532 183.008 578.426 183.008C582.149 182.71 585.575 181.519 588.405 179.434L539.851 169.16Z" fill="#BEC6C4"/>
<path d="M540 140.867L539.702 144.888L597.341 157.247L597.639 153.375L540 140.867Z" fill="#EEEFF0"/>
<path d="M539.554 148.908L539.256 152.78L596.894 165.139C596.894 164.99 596.894 164.841 596.894 164.692L597.192 161.267L539.554 148.908Z" fill="#EEEFF0"/>
<path d="M538.66 160.821L594.511 172.882C595.107 171.691 595.702 170.5 596 169.308L538.809 156.949L538.66 160.821Z" fill="#EEEFF0"/>
<path d="M539.851 169.16L588.554 179.583C589.894 178.69 591.085 177.647 592.128 176.307L538.809 164.841C539.107 166.479 539.405 167.819 539.851 169.16Z" fill="#EEEFF0"/>
</g>
<path d="M657.064 48.6929C677.468 48.6929 694.149 65.2217 694.149 85.771C694.149 105.278 679.107 121.211 660.043 122.7" stroke="#282E5B" stroke-width="1.772" stroke-linecap="round" stroke-linejoin="round"/>
<path d="M667.043 110.49L669.128 112.128L660.936 122.105L671.511 129.699L670.022 131.784L657.064 122.7L667.043 110.49Z" fill="#282E5B"/>
<path d="M432.319 38.865H499.788" stroke="#BACCC6" stroke-width="2.359" stroke-miterlimit="10" stroke-linecap="round" stroke-linejoin="round"/>
<path d="M432.319 48.6929H499.788" stroke="#BACCC6" stroke-width="2.359" stroke-miterlimit="10" stroke-linecap="round" stroke-linejoin="round"/>
<path d="M432.319 58.3719H499.788" stroke="#BACCC6" stroke-width="2.359" stroke-miterlimit="10" stroke-linecap="round" stroke-linejoin="round"/>
<path d="M432.319 68.1999H499.788" stroke="#BACCC6" stroke-width="2.359" stroke-miterlimit="10" stroke-linecap="round" stroke-linejoin="round"/>
<path d="M432.319 78.0278H458.383" stroke="#BACCC6" stroke-width="2.359" stroke-miterlimit="10" stroke-linecap="round" stroke-linejoin="round"/>
<path d="M509.171 193.878H518.107C518.256 192.985 518.405 192.091 518.405 191.198V171.244H494.873V203.706H506.043C507.085 203.706 508.128 203.557 509.022 203.259V193.878H509.171Z" fill="#EE5E43"/>
<path d="M509.171 203.259C513.639 202.068 517.213 198.494 518.107 194.027H509.171V203.259Z" fill="#C4422B"/>
<path d="M520.639 153.524H529.575C529.724 152.631 529.873 151.737 529.873 150.844V130.741H506.341V163.203H517.511C518.553 163.203 519.596 163.054 520.49 162.756V153.524H520.639Z" fill="#38AAE3"/>
<path d="M520.639 162.905C525.107 161.714 528.681 158.14 529.575 153.673H520.639V162.905Z" fill="#0254A9"/>
<path d="M538.511 221.277H549.383C549.532 220.235 549.681 219.193 549.681 218.15V194.027H521.383V232.892H534.788C535.979 232.892 537.319 232.743 538.362 232.445V221.277H538.511Z" fill="#FABB49"/>
<path d="M538.511 232.445C543.873 231.105 548.192 226.787 549.383 221.277H538.511V232.445Z" fill="#D38309"/>
<path d="M306.213 159.927H66.1277C61.5106 159.927 57.7872 156.205 57.7872 151.588V10.1258C57.7872 5.50963 61.5106 1.78693 66.1277 1.78693H306.064C310.681 1.78693 314.404 5.50963 314.404 10.1258V151.588C314.404 156.205 310.681 159.927 306.213 159.927Z" fill="#0254A9"/>
<path d="M296.681 141.612H75.6596C68.0638 141.612 61.9575 135.506 61.9575 127.912V21.8895C61.9575 14.2952 68.0638 8.18994 75.6596 8.18994H296.83C304.426 8.18994 310.532 14.2952 310.532 21.8895V128.061C310.383 135.506 304.277 141.612 296.681 141.612Z" fill="white"/>
<mask id="mask2_1_29" style="mask-type:luminance" maskUnits="userSpaceOnUse" x="61" y="8" width="250" height="134">
<path d="M296.681 141.612H75.6596C68.0638 141.612 61.9575 135.506 61.9575 127.912V21.8895C61.9575 14.2952 68.0638 8.18994 75.6596 8.18994H296.83C304.426 8.18994 310.532 14.2952 310.532 21.8895V128.061C310.383 135.506 304.277 141.612 296.681 141.612Z" fill="white"/>
</mask>
<g mask="url(#mask2_1_29)">
<path d="M153.255 145.632H93.0851C90.2553 145.632 87.8723 143.398 87.8723 140.42V126.572C87.8723 123.743 90.1064 121.36 93.0851 121.36H153.404C156.234 121.36 158.617 123.594 158.617 126.572V140.42C158.468 143.25 156.234 145.632 153.255 145.632Z" fill="#EE5E43"/>
</g>
<mask id="mask3_1_29" style="mask-type:luminance" maskUnits="userSpaceOnUse" x="61" y="8" width="250" height="134">
<path d="M296.681 141.612H75.6596C68.0638 141.612 61.9575 135.506 61.9575 127.912V21.8895C61.9575 14.2952 68.0638 8.18994 75.6596 8.18994H296.83C304.426 8.18994 310.532 14.2952 310.532 21.8895V128.061C310.383 135.506 304.277 141.612 296.681 141.612Z" fill="white"/>
</mask>
<g mask="url(#mask3_1_29)">
<path d="M279.404 145.632H176.489C173.66 145.632 171.426 143.398 171.426 140.569V126.423C171.426 123.594 173.66 121.36 176.489 121.36H279.404C282.234 121.36 284.468 123.594 284.468 126.423V140.569C284.468 143.398 282.234 145.632 279.404 145.632Z" fill="#FB9730"/>
</g>
<mask id="mask4_1_29" style="mask-type:luminance" maskUnits="userSpaceOnUse" x="61" y="8" width="250" height="134">
<path d="M296.681 141.612H75.6596C68.0638 141.612 61.9575 135.506 61.9575 127.912V21.8895C61.9575 14.2952 68.0638 8.18994 75.6596 8.18994H296.83C304.426 8.18994 310.532 14.2952 310.532 21.8895V128.061C310.383 135.506 304.277 141.612 296.681 141.612Z" fill="white"/>
</mask>
<g mask="url(#mask4_1_29)">
<path d="M331.83 4.61615H40.5107V15.3375H331.83V4.61615Z" fill="#38AAE3"/>
</g>
<path d="M190.638 5.50963C190.638 4.61618 188.702 3.87164 186.17 3.87164C183.638 3.87164 181.702 4.61618 181.702 5.50963C181.702 6.40308 183.638 7.14762 186.17 7.14762C188.702 7.14762 190.638 6.40308 190.638 5.50963Z" fill="#282E5B"/>
<path d="M189.447 5.50962C189.447 4.91399 187.957 4.31836 186.17 4.31836C184.383 4.31836 182.894 4.91399 182.894 5.50962C182.894 6.10526 184.383 6.70089 186.17 6.70089C187.957 6.70089 189.447 6.10526 189.447 5.50962Z" fill="#565699"/>
<path opacity="0.1" d="M79.9787 138.633V10.5725C79.9787 5.65853 90.8511 1.78693 104.255 1.78693H82.2128C68.8085 1.78693 57.9362 5.65853 57.9362 10.5725V138.633C57.9362 143.547 68.8085 147.419 82.2128 147.419H104.255C90.8511 147.419 79.9787 143.547 79.9787 138.633Z" fill="#034C8A"/>
<path d="M278.511 67.3064H93.8298C90.5532 67.3064 87.8723 64.6261 87.8723 61.3501V29.6327C87.8723 26.3567 90.5532 23.6764 93.8298 23.6764H278.511C281.787 23.6764 284.468 26.3567 284.468 29.6327V61.3501C284.468 64.775 281.787 67.3064 278.511 67.3064Z" fill="#A5DEF6"/>
<path d="M154.596 112.872H92.1915C89.8085 112.872 88.0213 110.936 88.0213 108.703V75.7942C88.0213 73.4117 89.9574 71.6248 92.1915 71.6248H154.596C156.979 71.6248 158.766 73.5606 158.766 75.7942V108.703C158.766 111.085 156.83 112.872 154.596 112.872Z" fill="#14B6A1"/>
<path d="M144.766 90.0894H98.1489C96.6596 90.0894 95.4681 88.8981 95.4681 87.409V78.4745C95.4681 76.9855 96.6596 75.7942 98.1489 75.7942H144.766C146.255 75.7942 147.447 76.9855 147.447 78.4745V87.409C147.447 88.8981 146.255 90.0894 144.766 90.0894Z" fill="#FABB49"/>
<path d="M98.5957 93.9609H146.255" stroke="#FEFEFE" stroke-width="1.0959" stroke-miterlimit="10" stroke-linecap="round" stroke-linejoin="round"/>
<path d="M169.191 71.4758H216.851" stroke="#F9AE26" stroke-width="1.0959" stroke-miterlimit="10" stroke-linecap="round" stroke-linejoin="round"/>
<path d="M236.809 91.7274H284.468" stroke="#BACCC6" stroke-width="1.0959" stroke-miterlimit="10" stroke-linecap="round" stroke-linejoin="round"/>
<path d="M236.809 95.3011H284.468" stroke="#BACCC6" stroke-width="1.0959" stroke-miterlimit="10" stroke-linecap="round" stroke-linejoin="round"/>
<path d="M236.809 98.8749H284.468" stroke="#BACCC6" stroke-width="1.0959" stroke-miterlimit="10" stroke-linecap="round" stroke-linejoin="round"/>
<path d="M236.809 102.449H284.468" stroke="#BACCC6" stroke-width="1.0959" stroke-miterlimit="10" stroke-linecap="round" stroke-linejoin="round"/>
<path d="M236.809 106.023H284.468" stroke="#BACCC6" stroke-width="1.0959" stroke-miterlimit="10" stroke-linecap="round" stroke-linejoin="round"/>
<path d="M169.191 75.6453H284.468" stroke="#BACCC6" stroke-width="1.0959" stroke-miterlimit="10" stroke-linecap="round" stroke-linejoin="round"/>
<path d="M169.191 79.6658H284.468" stroke="#BACCC6" stroke-width="1.0959" stroke-miterlimit="10" stroke-linecap="round" stroke-linejoin="round"/>
<path d="M169.191 83.8352H284.468" stroke="#BACCC6" stroke-width="1.0959" stroke-miterlimit="10" stroke-linecap="round" stroke-linejoin="round"/>
<path d="M169.191 88.0046H284.468" stroke="#BACCC6" stroke-width="1.0959" stroke-miterlimit="10" stroke-linecap="round" stroke-linejoin="round"/>
<path d="M169.191 109.447H284.468" stroke="#BACCC6" stroke-width="1.0959" stroke-miterlimit="10" stroke-linecap="round" stroke-linejoin="round"/>
<path d="M169.191 112.872H284.468" stroke="#BACCC6" stroke-width="1.0959" stroke-miterlimit="10" stroke-linecap="round" stroke-linejoin="round"/>
<path d="M169.191 116.297H244.404" stroke="#BACCC6" stroke-width="1.0959" stroke-miterlimit="10" stroke-linecap="round" stroke-linejoin="round"/>
<path d="M169.191 93.3654H212.979" stroke="#EE5F43" stroke-width="2.0952" stroke-miterlimit="10" stroke-linecap="round" stroke-linejoin="round"/>
<path d="M169.191 98.4282H212.979" stroke="#EE5F43" stroke-width="2.0952" stroke-miterlimit="10" stroke-linecap="round" stroke-linejoin="round"/>
<path d="M169.191 103.342H200.468" stroke="#EE5F43" stroke-width="2.0952" stroke-miterlimit="10" stroke-linecap="round" stroke-linejoin="round"/>
<path d="M98.5957 97.6837H146.255" stroke="#FEFEFE" stroke-width="1.0959" stroke-miterlimit="10" stroke-linecap="round" stroke-linejoin="round"/>
<path d="M98.5957 101.555H146.255" stroke="#FEFEFE" stroke-width="1.0959" stroke-miterlimit="10" stroke-linecap="round" stroke-linejoin="round"/>
<path d="M98.5957 105.427H127.936" stroke="#FEFEFE" stroke-width="1.0959" stroke-miterlimit="10" stroke-linecap="round" stroke-linejoin="round"/>
<path d="M437.064 411.433C442.426 410.688 447.787 409.944 453.149 409.199C453.447 413.071 454.34 418.134 457.17 423.048C465.362 437.343 483.234 439.428 482.638 442.852C482.341 444.193 479.957 445.831 471.617 444.937C468.936 444.639 460.745 443.895 458.362 440.917C455.979 437.938 451.213 438.534 451.213 438.534L451.66 444.342L438.851 443.448C438.553 439.725 437.362 418.283 437.064 411.433Z" fill="#034C8A"/>
<path d="M458.957 266.694C460.894 303.772 459.404 327.3 457.319 342.339C456.575 348.445 453.596 369.143 454.192 396.691C454.34 399.818 455.085 410.986 455.234 412.773C449.575 413.22 439 415.155 433.34 415.453C428.277 399.222 430.958 375.546 430.66 366.165C430.362 357.23 431.106 355.89 430.66 338.17C430.362 321.195 430.064 312.707 428.575 307.197C427.085 302.283 424.851 296.476 424.404 287.541C424.106 282.032 424.851 278.309 425 277.564C426.489 269.375 430.362 263.567 432.745 260.44C435.723 260.738 438.851 261.334 441.979 261.929C448.383 263.12 454.043 264.758 458.957 266.694Z" fill="#12A189"/>
<path d="M422.617 411.433C427.979 410.688 433.34 409.944 438.702 409.199C439 413.071 439.894 418.134 442.723 423.048C450.915 437.343 468.787 439.427 468.192 442.852C467.894 444.192 465.511 445.83 457.17 444.937C454.489 444.639 446.298 443.895 443.915 440.917C441.532 437.938 436.766 438.534 436.766 438.534L437.213 444.341L424.404 443.448C424.255 439.725 422.915 418.282 422.617 411.433Z" fill="#0254A9"/>
<path d="M446.447 266.694C448.383 303.772 446.894 327.3 444.809 342.339C444.064 348.445 441.085 369.143 441.681 396.691C441.83 399.818 442.575 410.986 442.723 412.773C437.064 413.22 426.489 415.155 420.83 415.453C415.766 399.222 418.447 375.546 418.149 366.165C417.851 357.23 418.596 355.89 418.149 338.17C417.851 323.428 417.702 316.132 416.064 307.197C413.979 296.774 412.192 296.774 410.553 287.095C408.915 277.713 409.362 269.821 409.809 264.609C410.255 262.525 410.702 260.589 411 258.504C413.383 258.504 415.915 258.504 418.298 258.504C421.872 259.696 425.447 261.185 429.319 261.929C435.723 263.12 441.532 264.758 446.447 266.694Z" fill="#14B6A1"/>
<path d="M407.723 127.763C407.723 127.763 405.192 123.445 405.787 121.062C406.532 118.68 410.106 114.808 415.021 113.915C419.936 113.021 430.809 115.553 433.043 111.83C435.277 108.107 434.383 105.129 432.745 106.022C433.192 103.789 439.745 103.789 441.83 109.15C443.915 114.51 443.766 119.871 440.787 125.529C437.957 130.89 426.638 134.166 422.021 135.208C422.021 136.549 421.128 148.759 421.128 148.759L421.574 162.161C421.574 162.161 420.681 166.628 415.468 167.075C410.255 167.521 402.66 150.099 402.064 138.931C401.319 127.763 404.894 127.614 407.723 127.763Z" fill="#282E5B"/>
<path d="M442.426 137.591C443.468 138.931 447.787 141.314 448.83 144.143C449.872 146.972 446.298 147.717 446.298 147.717C446.894 152.184 447.34 157.545 444.66 161.416C442.574 164.245 438.702 166.777 435.277 164.543C436.17 167.521 437.213 170.5 438.553 173.776C440.34 178.243 442.277 182.263 444.213 185.837C442.574 186.284 440.787 186.582 438.702 186.879C433.489 187.475 428.872 187.177 425.298 186.731C418.745 182.859 417.255 179.583 417.255 177.2C417.106 173.329 420.83 171.691 421.872 166.926C422.915 162.012 420.383 157.247 418.149 154.12C417.851 154.269 415.617 155.46 413.979 154.12C412.34 152.928 410.851 149.95 412.34 148.163C413.83 146.377 415.915 146.376 417.404 146.972C418.894 144.739 422.021 141.016 420.383 134.762C425 133.868 437.064 128.21 439.298 123.147C439.447 124.04 441.383 136.251 442.426 137.591Z" fill="#D08B73"/>
<mask id="mask5_1_29" style="mask-type:luminance" maskUnits="userSpaceOnUse" x="411" y="123" width="39" height="65">
<path d="M442.426 137.591C443.468 138.931 447.787 141.314 448.83 144.143C449.872 146.972 446.298 147.717 446.298 147.717C446.894 152.184 447.34 157.545 444.66 161.416C442.574 164.245 438.702 166.777 435.277 164.543C436.17 167.521 437.213 170.5 438.553 173.776C440.34 178.243 442.277 182.263 444.213 185.837C442.574 186.284 440.787 186.582 438.702 186.879C433.489 187.475 428.872 187.177 425.298 186.731C418.745 182.859 417.255 179.583 417.255 177.2C417.106 173.329 420.83 171.691 421.872 166.926C422.915 162.012 420.383 157.247 418.149 154.12C417.851 154.269 415.617 155.46 413.979 154.12C412.34 152.928 410.851 149.95 412.34 148.163C413.83 146.377 415.915 146.376 417.404 146.972C418.894 144.739 422.021 141.016 420.383 134.762C425 133.868 437.064 128.21 439.298 123.147C439.447 124.04 441.383 136.251 442.426 137.591Z" fill="white"/>
</mask>
<g mask="url(#mask5_1_29)">
<g opacity="0.5">
<path d="M421.723 153.226C421.575 153.226 422.021 154.566 423.213 156.353C424.404 158.14 426.34 160.523 428.872 162.607C431.404 164.692 434.085 166.181 436.17 166.777C438.255 167.373 439.596 167.373 439.596 167.224C439.596 167.075 438.255 166.777 436.468 166.032C434.532 165.288 432 163.799 429.617 161.714C427.234 159.629 425.149 157.545 423.957 155.907C422.617 154.269 421.872 153.077 421.723 153.226Z" fill="#BC6C56"/>
</g>
</g>
<path d="M417.106 151.588C417.106 151.439 416.809 151.291 416.362 151.142C416.213 150.993 415.915 150.993 415.766 150.844C415.468 150.695 415.468 150.546 415.468 150.546C415.468 150.397 415.468 149.801 415.468 149.801C415.468 149.653 415.468 149.504 415.617 149.504C415.915 149.206 416.362 149.057 416.213 148.908C416.213 148.759 415.915 148.61 415.319 148.61C415.021 148.61 414.426 148.908 414.277 149.504C414.128 149.801 414.128 149.95 414.128 150.099C414.128 150.248 414.128 150.546 414.128 150.844C414.128 151.142 414.426 151.439 414.574 151.588C414.723 151.737 415.021 151.886 415.17 151.886C415.617 152.035 415.915 152.035 416.213 152.035C416.809 152.035 417.106 151.737 417.106 151.588Z" fill="#BC6C56"/>
<path d="M422.17 163.799C419.787 167.819 416.66 173.925 413.681 181.817C407.128 199.388 406.383 214.279 405.638 234.679C405.34 242.72 405.192 253.739 405.787 266.843C405.787 267.29 410.404 268.183 410.851 268.332C413.532 268.928 416.064 269.672 418.745 270.268C420.383 270.268 422.468 271.161 424.106 271.608C426.043 272.055 427.83 272.502 429.766 272.948C433.192 273.842 436.17 273.842 439.745 273.842C447.192 273.842 454.638 272.353 461.787 269.821C461.043 269.821 460.447 250.612 460.447 249.123C460.447 246.741 460.447 245.996 460.447 243.911C460.298 239.891 460 232.445 457.915 220.979C455.532 207.578 454.192 200.728 450.468 192.985C447.043 185.986 443.021 180.774 440.192 177.349C438.553 177.945 435.574 178.838 432.149 177.796C426.787 176.456 422.766 170.797 422.17 163.799Z" fill="#F9AE26"/>
<path d="M460.447 237.657V246.145L439.298 234.977L434.085 237.657H425.447V228.574L432.745 232.892L438.553 230.361L460.447 237.657Z" fill="#D38309"/>
<path d="M433.936 222.171C431.106 224.255 428.277 226.489 425.447 228.574C426.043 230.956 426.489 233.339 427.085 235.721C429.766 235.721 432.596 235.721 435.277 235.721C436.319 234.53 437.362 233.19 438.404 231.999C445.255 234.679 452.106 237.359 458.957 240.04C461.638 240.635 465.511 240.784 467.745 237.955C470.277 234.679 468.787 229.02 466.702 225.447C461.043 215.768 463.426 196.856 453.447 176.754C451.809 179.881 451.362 183.455 449.872 186.731C454.192 197.601 447.787 213.534 452.255 224.404C446 223.511 440.043 222.766 433.936 222.171Z" fill="#D08B73"/>
<path d="M458.957 230.361C457.17 231.701 454.638 232.148 452.404 232.148C450.766 232.148 448.979 231.999 447.489 231.403C445.851 230.807 444.957 229.765 443.915 228.425C442.872 227.234 441.681 226.191 440.638 225C440.34 224.702 436.17 220.235 436.17 220.235C434.979 221.426 433.34 222.468 432.149 223.66C432.745 223.064 438.702 227.978 439.447 228.425C441.085 229.616 442.723 230.807 444.362 231.999C445.702 233.041 447.043 234.232 448.681 234.53C452.255 235.126 455.681 235.126 458.957 233.339C460.596 232.445 461.638 229.467 462.085 227.68C462.83 225.298 462.979 222.766 462.532 220.384C462.532 222.022 462.383 223.809 462.085 225.447C461.638 227.085 460.894 228.723 459.702 229.765C459.255 230.063 459.106 230.212 458.957 230.361Z" fill="#BC6C56"/>
<path d="M432 223.66C432 223.66 419.34 216.661 415.617 212.194C411.894 207.727 410.702 194.325 411.894 192.687C413.085 191.049 433.638 211.3 433.638 211.3L438.553 218.895L432 223.66Z" fill="#D38309"/>
<path d="M436.021 187.922C439.447 190.9 443.468 193.58 446.447 197.154C447.936 198.941 448.383 201.175 448.532 203.557C448.681 205.94 448.83 208.322 449.128 210.854L434.383 192.091L436.021 187.922Z" fill="#D38309"/>
<path d="M430.064 186.135C433.489 188.518 437.809 192.24 441.979 197.601C445.404 202.068 447.787 206.535 449.128 209.96C449.128 200.579 449.277 191.049 449.277 181.668C446.894 178.243 444.511 174.818 442.277 171.393C443.468 167.521 444.511 163.65 445.702 159.927C449.277 160.523 452.851 161.118 456.426 161.714C458.213 164.841 460 167.819 461.936 170.946C461.043 174.669 460.298 178.541 459.404 182.263C460 188.815 460.894 198.048 461.936 209.216C462.83 218.895 463.426 228.276 459.106 231.105C456.426 232.892 453.298 233.041 453.298 233.041C453.298 233.041 451.064 233.19 448.532 232.296C444.511 230.807 431.404 218.895 414.872 201.175C419.787 195.963 425 191.049 430.064 186.135Z" fill="#D08B73"/>
<mask id="mask6_1_29" style="mask-type:luminance" maskUnits="userSpaceOnUse" x="414" y="159" width="49" height="75">
<path d="M430.064 186.135C433.489 188.518 437.809 192.24 441.979 197.601C445.404 202.068 447.787 206.535 449.128 209.96C449.128 200.579 449.277 191.049 449.277 181.668C446.894 178.243 444.511 174.818 442.277 171.393C443.468 167.521 444.511 163.65 445.702 159.927C449.277 160.523 452.851 161.118 456.426 161.714C458.213 164.841 460 167.819 461.936 170.946C461.043 174.669 460.298 178.541 459.404 182.263C460 188.815 460.894 198.048 461.936 209.216C462.83 218.895 463.426 228.276 459.106 231.105C456.426 232.892 453.298 233.041 453.298 233.041C453.298 233.041 451.064 233.19 448.532 232.296C444.511 230.807 431.404 218.895 414.872 201.175C419.787 195.963 425 191.049 430.064 186.135Z" fill="white"/>
</mask>
<g mask="url(#mask6_1_29)">
<path d="M447.34 202.515L431.702 218.299L433.936 220.682L448.383 206.089L447.34 202.515Z" fill="#BC6C56"/>
</g>
<path d="M431.702 221.128L448.085 204.004C444.362 195.367 421.872 167.373 413.085 186.731C404.596 205.642 427.83 218.299 431.702 221.128Z" fill="#F9AE26"/>
<path d="M311.937 277.118C311.49 276.969 311.043 276.82 310.745 276.522C309.256 275.927 307.915 275.182 306.426 274.735C304.639 274.289 303 273.693 301.213 273.246C301.958 273.097 302.703 272.948 303.447 272.799C304.043 272.651 304.788 272.353 305.383 272.204C305.979 272.055 306.575 271.757 307.171 271.31C307.617 270.864 308.064 270.119 307.766 269.672C306.724 269.672 305.681 270.268 304.788 270.566C303.745 270.864 297.192 272.799 294.958 273.395C291.234 274.437 287.511 275.331 283.937 276.224L282.745 276.373C282.596 276.075 282.596 275.778 282.447 275.48C276.788 275.48 270.979 275.48 265.32 275.629C257.575 274.437 249.681 273.246 241.937 271.906C238.66 258.355 234.192 247.783 230.617 240.338C222.426 223.66 217.66 221.724 214.83 221.277C210.213 220.533 204.703 222.915 202.171 226.936C197.851 233.637 202.766 243.167 209.915 257.164C218.851 274.289 223.171 282.925 230.617 287.095C244.766 294.987 262.043 290.668 272.915 287.988C278.277 286.648 282.447 285.159 285.426 283.819C285.277 283.521 285.277 283.372 285.128 283.074C287.064 283.074 288.851 282.925 290.788 282.925C292.575 283.819 294.064 284.712 294.958 285.457C296.447 286.499 298.383 288.286 298.383 288.286C298.532 288.435 299.575 288.882 300.766 288.435C301.064 288.286 301.66 287.988 301.809 287.69C301.958 287.392 301.66 286.946 301.362 286.648C300.32 285.606 299.277 284.861 299.128 284.712C298.532 284.265 297.788 283.67 297.043 282.776C298.234 282.478 299.426 282.33 300.617 282.627C301.66 282.776 302.703 283.372 303.596 283.819C304.639 284.414 305.383 285.308 306.426 285.903C307.171 286.35 307.915 286.499 308.66 286.499C309.405 286.499 310 286.201 310.596 285.606C308.809 284.116 306.575 282.478 303.745 280.989C302.703 280.394 301.66 279.947 300.617 279.649C300.32 279.203 300.171 279.054 300.32 278.905C300.617 278.458 303.149 279.5 303.298 279.5C303.745 279.649 304.192 279.947 305.086 280.394C306.277 280.989 307.468 281.734 308.809 282.33C310.149 283.074 311.192 282.776 312.234 281.734C312.086 281.883 310.298 280.543 310.149 280.394C308.958 279.649 307.766 279.054 306.575 278.458C304.937 277.713 303.298 277.118 301.958 276.671C301.809 276.373 301.809 276.224 301.809 276.075C302.107 275.629 303.298 275.927 305.681 276.671C307.022 277.118 308.362 277.862 309.703 278.011C310.447 278.011 311.49 278.011 312.086 277.565C312.532 277.416 312.383 277.416 311.937 277.118Z" fill="#C4422B"/>
<path d="M259.958 434.365C261.745 433.769 264.128 432.876 263.83 430.344C263.532 427.813 257.426 424.983 255.49 423.345C255.341 417.091 254.745 411.284 251.171 405.923C251.171 405.923 251.022 406.072 251.022 405.923C251.022 405.179 250.575 405.179 250.724 404.136C250.873 403.094 252.809 401.009 253.703 400.116C254.894 400.116 255.937 400.265 257.128 400.414C271.873 383.438 283.788 365.718 284.086 342.637C284.086 340.404 284.086 338.319 282.894 336.085C280.511 331.916 275.596 328.64 271.724 325.662C266.809 321.79 261.447 318.514 255.788 315.536C255.192 315.238 254.447 314.792 253.851 314.643C250.575 312.856 246.554 311.367 243.426 310.473C238.511 308.984 236.575 307.644 230.915 306.453C225.256 305.261 205.149 302.432 201.575 302.581C198.149 302.581 200.234 311.069 199.937 311.664C198.447 316.876 199.937 320.152 200.532 324.768C200.532 325.066 200.383 325.215 200.681 325.662C200.681 325.811 200.383 324.917 201.128 325.96C203.809 329.831 202.915 332.661 208.426 336.383C216.766 342.042 231.511 338.766 242.83 340.404C247.298 340.999 254.894 344.722 259.213 347.402C257.575 355.89 255.192 358.124 251.32 367.654C249.383 372.717 237.915 393.415 236.724 398.031C235.532 402.647 240 396.989 239.851 399.52C239.107 401.158 238.064 403.541 237.022 405.328C233.298 408.455 230.32 412.177 228.234 416.645C229.724 417.389 232.851 418.878 233.894 419.325C234.937 419.772 234.043 419.474 234.639 419.772C235.234 420.07 235.83 420.367 236.426 420.665C236.724 419.474 238.064 419.772 238.809 420.218C241.341 421.559 243.277 423.197 244.766 425.43C246.256 427.664 246.107 430.344 248.043 432.131C249.979 433.918 251.766 434.663 254.298 435.109C256.086 435.258 258.171 435.109 259.958 434.365Z" fill="#282E5B"/>
<path d="M185.49 330.427C185.49 330.427 210.213 340.106 224.213 342.042C238.213 343.829 247.596 340.255 250.277 340.999C252.958 341.744 260.851 363.187 269.341 371.525C277.83 379.864 302.107 398.031 304.788 400.563C307.468 403.094 311.788 413.815 311.788 413.815L317.745 411.731L316.554 408.604C316.554 408.604 337.107 399.52 339.043 396.542C340.979 393.564 343.064 382.991 340.085 379.567C337.107 376.142 334.575 388.501 330.851 389.99C327.128 391.479 313.724 390.884 309.851 389.692C305.979 388.501 270.234 329.98 265.468 326.853C260.703 323.875 229.277 312.856 221.979 313.005C214.681 313.154 186.83 308.835 186.83 308.835L185.49 330.427Z" fill="#034C8A"/>
<path d="M229.575 344.722C238.064 344.722 245.064 345.169 249.83 345.467C253.405 352.316 256.979 359.911 261.596 366.165C263.979 369.441 295.554 399.073 296.149 398.18L307.915 383.14C294.66 364.676 281.703 346.062 268.149 327.747C266.809 325.96 265.468 324.173 263.681 322.833C260.405 320.45 254.149 320.152 250.128 319.259C244.915 317.919 239.703 316.727 234.49 315.387C227.639 313.749 220.341 312.558 213.639 310.324C210.213 309.133 185.639 306.899 185.341 306.899C185.937 306.899 184.745 315.983 184.745 316.578C183.851 323.726 184.745 327.3 185.788 330.278C186.085 331.023 188.022 337.277 192.937 341.297C200.234 347.551 208.724 344.871 229.575 344.722Z" fill="#0254A9"/>
<path d="M304.788 400.563C307.171 398.925 312.085 389.99 312.085 389.99L331.149 387.459C331.149 387.459 336.064 376.886 338.149 377.631C340.681 378.375 341.128 379.566 341.575 382.098C342.022 384.183 342.022 386.267 341.873 388.501C341.426 391.777 340.383 395.053 338.447 397.733C336.511 400.563 333.085 401.009 330.256 402.647C327.128 404.434 324 406.37 320.873 408.157C319.979 408.604 318.639 409.646 319.681 410.837L311.639 415.304L304.788 400.563Z" fill="#EE5F43"/>
<path d="M219.596 201.473L209.468 220.235C214.979 224.702 220.639 229.318 226.149 233.786C225.405 231.85 224.362 228.276 225.107 223.809C226.149 216.512 230.766 212.045 232.107 210.854C227.937 207.578 223.766 204.6 219.596 201.473Z" fill="#D08B73"/>
<mask id="mask7_1_29" style="mask-type:luminance" maskUnits="userSpaceOnUse" x="209" y="201" width="24" height="33">
<path d="M219.596 201.473L209.468 220.235C214.979 224.702 220.639 229.318 226.149 233.786C225.405 231.85 224.362 228.276 225.107 223.809C226.149 216.512 230.766 212.045 232.107 210.854C227.937 207.578 223.766 204.6 219.596 201.473Z" fill="white"/>
</mask>
<g mask="url(#mask7_1_29)">
<g opacity="0.5">
<path d="M223.617 204.451C222.724 204.748 223.171 209.067 225.703 213.534C226.894 215.768 228.234 217.703 229.724 218.895C231.213 220.086 232.554 220.235 232.703 219.788C232.851 219.341 232.256 218.597 231.66 217.257C231.064 215.917 229.873 213.832 228.83 211.747C226.298 207.876 224.511 204.302 223.617 204.451Z" fill="#EE5F43"/>
</g>
</g>
<path d="M225.851 231.403C224.362 229.318 222.873 227.085 221.234 224.851C218.405 220.979 215.426 217.555 212.596 214.576C200.383 215.023 194.128 219.341 191 222.469C184.298 229.02 182.66 238.104 183.107 275.182C183.256 289.03 183.554 300.496 183.851 308.537C185.192 309.878 194.724 319.259 209.171 318.067C222.575 317.025 230.171 307.644 231.511 306.006C231.064 295.433 230.617 286.797 230.171 280.989C229.277 267.885 228.979 260.44 227.937 250.314C227.192 242.422 226.447 235.87 225.851 231.403Z" fill="#EE5F43"/>
<mask id="mask8_1_29" style="mask-type:luminance" maskUnits="userSpaceOnUse" x="183" y="214" width="49" height="105">
<path d="M225.851 231.403C224.362 229.318 222.873 227.085 221.234 224.851C218.405 220.979 215.426 217.555 212.596 214.576C200.383 215.023 194.128 219.341 191 222.469C184.298 229.02 182.66 238.104 183.107 275.182C183.256 289.03 183.554 300.496 183.851 308.537C185.192 309.878 194.724 319.259 209.171 318.067C222.575 317.025 230.171 307.644 231.511 306.006C231.064 295.433 230.617 286.797 230.171 280.989C229.277 267.885 228.979 260.44 227.937 250.314C227.192 242.422 226.447 235.87 225.851 231.403Z" fill="white"/>
</mask>
<g mask="url(#mask8_1_29)">
<path d="M192.043 230.956C191.894 231.999 191.745 233.041 191.745 234.083C191.745 236.913 191.745 239.742 191.745 242.571C191.745 247.187 193.085 251.506 194.128 255.973C195.171 259.993 196.66 263.716 198.745 267.29C200.532 270.417 202.468 273.544 204.554 276.522C206.192 278.756 207.979 280.989 209.915 282.925C213.043 286.052 216.915 288.733 221.085 290.668C225.703 292.753 230.915 293.2 235.83 293.647C237.915 293.795 240.149 293.349 242.234 293.944" stroke="#C4422B" stroke-width="1.4641" stroke-miterlimit="10"/>
</g>
<mask id="mask9_1_29" style="mask-type:luminance" maskUnits="userSpaceOnUse" x="183" y="214" width="49" height="105">
<path d="M225.851 231.403C224.362 229.318 222.873 227.085 221.234 224.851C218.405 220.979 215.426 217.555 212.596 214.576C200.383 215.023 194.128 219.341 191 222.469C184.298 229.02 182.66 238.104 183.107 275.182C183.256 289.03 183.554 300.496 183.851 308.537C185.192 309.878 194.724 319.259 209.171 318.067C222.575 317.025 230.171 307.644 231.511 306.006C231.064 295.433 230.617 286.797 230.171 280.989C229.277 267.885 228.979 260.44 227.937 250.314C227.192 242.422 226.447 235.87 225.851 231.403Z" fill="white"/>
</mask>
<g mask="url(#mask9_1_29)">
<path d="M202.915 225.447C204.107 227.085 206.639 228.425 208.128 229.616C209.617 230.807 210.511 232.148 211.554 233.637C213.937 237.061 216.022 240.635 217.958 244.209C221.83 251.506 224.958 259.249 227.341 267.141C227.788 268.481 228.086 269.97 228.532 271.31C228.83 272.502 228.979 273.991 229.426 275.182C229.724 275.778 229.873 276.075 229.873 276.671" stroke="#C4422B" stroke-width="1.7716" stroke-miterlimit="10"/>
</g>
<path d="M222.128 205.344C221.234 205.493 219.596 202.813 219 202.217C217.064 200.281 215.277 199.09 214.83 196.112C214.532 193.58 215.128 191.347 215.426 188.964C215.724 186.433 216.022 183.752 216.617 181.221C218.107 175.711 221.085 170.797 226.149 168.117C235.085 163.203 254.596 167.075 253.554 177.796C253.107 183.157 252.958 188.369 250.277 194.027C250.277 194.027 237.468 204.004 234.043 203.855C230.766 203.408 222.128 205.344 222.128 205.344Z" fill="#034C8A"/>
<path d="M251.766 181.519C251.915 185.242 250.128 195.963 249.681 197.154C249.234 198.345 248.788 200.132 249.383 201.324C249.979 202.515 251.766 206.238 251.617 207.131C251.468 208.024 249.086 208.769 248.341 208.173C247.596 207.578 245.66 206.238 245.66 206.238C245.66 206.238 240.745 215.917 239.256 217.704C237.766 219.341 233.894 219.193 232.256 217.704C230.617 216.214 223.171 209.662 221.979 204.302C220.788 198.792 221.383 196.261 221.383 196.261C221.383 196.261 218.256 191.198 220.639 188.369C223.022 185.539 225.554 186.135 226.894 186.731C228.234 187.475 229.426 190.156 229.426 190.156C229.426 190.156 236.575 184.795 237.022 182.263C237.468 179.583 236.873 179.881 236.873 179.881C236.873 179.881 241.192 182.859 244.32 182.71C247.447 182.412 251.766 181.519 251.766 181.519Z" fill="#D08B73"/>
<g opacity="0.5">
<path d="M223.171 193.283C223.171 193.134 222.724 192.836 222.575 192.389C222.426 191.942 222.873 190.9 223.617 190.304C224.362 189.709 225.405 189.709 226 190.007C226.596 190.453 227.192 190.602 227.341 190.453C227.341 190.304 227.192 190.007 226.596 189.411C225.851 188.666 224.362 188.518 223.022 189.411C221.83 190.304 221.383 191.794 221.979 192.836C222.277 193.283 222.724 193.431 223.022 193.431C223.022 193.283 223.171 193.283 223.171 193.283Z" fill="#EE5F43"/>
</g>
<path d="M265.915 285.159C270.085 285.01 274.256 284.861 278.426 284.861C280.213 285.754 281.702 286.648 282.596 287.392C284.085 288.584 286.022 290.222 286.022 290.222C286.171 290.371 287.213 290.817 288.405 290.371C288.702 290.222 289.298 289.924 289.447 289.626C289.596 289.328 289.298 288.882 289 288.584C287.958 287.541 286.915 286.797 286.766 286.648C286.171 286.201 285.426 285.606 284.681 284.712C285.873 284.414 287.064 284.265 288.256 284.563C289.298 284.712 290.341 285.308 291.234 285.754C292.277 286.35 293.022 287.244 294.064 287.839C294.809 288.286 295.554 288.435 296.298 288.435C297.043 288.435 297.639 288.137 298.234 287.541C296.447 286.052 294.213 284.414 291.383 282.925C290.341 282.33 289.298 281.883 288.256 281.585C287.958 281.138 287.809 280.989 287.958 280.84C288.256 280.394 290.788 281.436 290.937 281.436C291.383 281.585 291.83 281.883 292.724 282.33C293.915 282.925 295.107 283.521 296.447 284.265C297.788 285.01 298.83 284.712 299.873 283.67C299.724 283.819 297.937 282.478 297.788 282.33C296.596 281.585 295.405 280.989 294.213 280.394C292.575 279.649 290.937 279.054 289.596 278.607C289.447 278.309 289.447 278.16 289.447 278.011C289.745 277.565 290.937 277.862 293.32 278.607C294.66 279.054 296 279.798 297.341 279.947C298.085 279.947 299.128 279.947 299.724 279.5C300.171 279.202 300.022 279.054 299.575 278.905C299.128 278.756 298.681 278.607 298.383 278.309C296.894 277.713 295.554 276.969 294.064 276.522C292.277 276.075 290.639 275.48 288.851 275.033C289.596 274.884 290.341 274.735 291.085 274.586C291.681 274.437 292.426 274.14 293.022 273.991C293.617 273.842 294.213 273.544 294.809 273.097C295.256 272.651 295.702 271.906 295.405 271.459C294.362 271.459 293.319 272.055 292.426 272.353C291.383 272.651 284.83 274.586 282.596 275.182C278.873 276.224 275.149 277.118 271.575 278.011L265.617 278.607L265.915 285.159Z" fill="#D08B73"/>
<path d="M189.809 228.872C185.49 235.572 190.405 245.103 197.554 259.1C206.49 276.224 210.809 284.861 218.256 289.03C232.405 296.923 249.681 292.604 260.554 289.924C265.915 288.584 270.085 287.095 273.064 285.754C272.022 282.925 271.128 280.245 270.085 277.416C264.426 277.416 258.617 277.416 252.958 277.565C245.213 276.373 237.32 275.182 229.575 273.842C226.298 260.291 221.83 249.719 218.256 242.273C210.064 225.596 205.298 223.66 202.468 223.213C197.851 222.469 192.341 224.851 189.809 228.872Z" fill="#EE5F43"/>
<path d="M245.511 357.528H184C182.213 357.528 180.872 356.188 180.872 354.401V347.7C180.872 345.913 182.213 344.573 184 344.573H245.511C247.298 344.573 248.638 345.913 248.638 347.7V354.401C248.638 356.188 247.298 357.528 245.511 357.528Z" fill="#346EC1"/>
<path d="M164.638 303.623C164.638 292.604 164.936 281.734 164.489 270.715C164.191 263.418 164.191 256.122 165.383 248.974C165.83 245.847 167.915 231.403 174.319 234.083C175.511 234.679 176.106 236.317 176.255 237.062C175.957 259.249 175.66 281.436 175.362 303.474C175.362 306.304 173.426 308.686 171.043 308.686H168.957C166.574 308.835 164.638 306.453 164.638 303.623Z" fill="#346EC1"/>
<path d="M164.34 266.396V335.936C164.34 341.595 166.575 346.956 170.596 350.827C174.617 354.848 179.979 357.081 185.489 357.081H237.468" stroke="#034C8A" stroke-width="1.5" stroke-miterlimit="10" stroke-linecap="round" stroke-linejoin="round"/>
<path d="M213.043 357.528H207.83V433.024H213.043V357.528Z" fill="#034C8A" stroke="#034C8A" stroke-miterlimit="10" stroke-linecap="round" stroke-linejoin="round"/>
<path d="M217.362 392.075H203.66V417.836H217.362V392.075Z" fill="#034C8A" stroke="#034C8A" stroke-miterlimit="10" stroke-linecap="round" stroke-linejoin="round"/>
<path d="M256.681 435.556C250.574 431.535 233.447 421.261 209.617 421.559C186.83 421.856 170.596 431.386 164.489 435.556C164.489 434.067 164.489 432.727 164.489 431.238C171.043 427.068 187.128 417.985 209.617 417.836C233.298 417.538 250.277 427.217 256.681 431.238C256.681 432.727 256.681 434.216 256.681 435.556Z" fill="#034C8A" stroke="#034C8A" stroke-miterlimit="10" stroke-linecap="round" stroke-linejoin="round"/>
<path d="M170.298 435.556C170.298 432.28 167.617 429.6 164.34 429.6C161.064 429.6 158.383 432.28 158.383 435.556C158.383 438.832 161.064 441.512 164.34 441.512C167.617 441.512 170.298 438.832 170.298 435.556Z" fill="#034C8A" stroke="#034C8A" stroke-miterlimit="10" stroke-linecap="round" stroke-linejoin="round"/>
<path d="M256.681 441.512C259.971 441.512 262.638 438.846 262.638 435.556C262.638 432.266 259.971 429.6 256.681 429.6C253.391 429.6 250.723 432.266 250.723 435.556C250.723 438.846 253.391 441.512 256.681 441.512Z" fill="#034C8A" stroke="#034C8A" stroke-miterlimit="10" stroke-linecap="round" stroke-linejoin="round"/>
<path d="M210.511 441.065C213.554 441.065 216.021 438.599 216.021 435.556C216.021 432.513 213.554 430.046 210.511 430.046C207.467 430.046 205 432.513 205 435.556C205 438.599 207.467 441.065 210.511 441.065Z" fill="#034C8A" stroke="#034C8A" stroke-miterlimit="10" stroke-linecap="round" stroke-linejoin="round"/>
<path d="M305.83 441.512L402.937 301.39" stroke="#034C8A" stroke-width="2.916" stroke-miterlimit="10" stroke-linecap="round" stroke-linejoin="round"/>
<path d="M307.32 301.39L401.447 441.512" stroke="#034C8A" stroke-width="2.916" stroke-miterlimit="10" stroke-linecap="round" stroke-linejoin="round"/>
<path d="M431.979 309.133H276.788C274.405 309.133 272.617 307.197 272.617 304.964V297.965C272.617 295.582 274.554 293.795 276.788 293.795H431.979C434.362 293.795 436.149 295.731 436.149 297.965V304.964C436.149 307.346 434.362 309.133 431.979 309.133Z" fill="#346EC1"/>
<path d="M429.149 305.41H279.766C276.192 305.41 273.362 302.879 272.766 299.454C272.766 299.901 272.617 300.199 272.617 300.645V301.836C272.617 305.708 275.745 308.984 279.766 308.984H429.149C433.022 308.984 436.298 305.857 436.298 301.836V300.794C436.298 300.347 436.298 299.901 436.149 299.603C435.554 302.879 432.575 305.41 429.149 305.41Z" fill="#0254A9"/>
<path d="M340.83 262.525L337.107 261.929C336.064 261.78 335.319 260.738 335.468 259.696L345.149 192.389C345.298 191.347 346.341 190.602 347.383 190.751L351.107 191.347C352.149 191.496 352.894 192.538 352.745 193.58L343.064 260.887C342.915 261.929 341.873 262.674 340.83 262.525Z" fill="#034C8A"/>
<path d="M363.022 290.817L361.234 291.264C360.49 291.413 359.745 290.966 359.596 290.371L343.958 232.296C343.809 231.552 344.256 230.807 344.851 230.658L346.639 230.212C347.383 230.063 348.128 230.51 348.277 231.105L363.915 289.179C364.064 289.924 363.766 290.668 363.022 290.817Z" fill="#034C8A"/>
<path d="M370.022 293.349H349.469C348.277 293.349 347.235 292.306 347.235 291.115V288.137C347.235 286.946 348.277 285.903 349.469 285.903H370.022C371.213 285.903 372.256 286.946 372.256 288.137V291.115C372.107 292.455 371.213 293.349 370.022 293.349Z" fill="#034C8A"/>
<path d="M324.596 289.626H285.128C284.532 289.626 284.085 290.073 284.085 290.668V292.157C284.085 292.753 284.532 293.2 285.128 293.2H324.596C325.192 293.2 325.638 292.753 325.638 292.157V290.668C325.787 290.222 325.192 289.626 324.596 289.626Z" fill="#034C8A"/>
<path d="M633.936 264.907C633.936 264.907 620.085 328.342 617.702 337.872C615.468 347.253 605.638 397.138 605.638 397.138L619.192 401.605C619.192 401.605 631.106 376.142 632.298 369.887C633.638 363.782 631.553 349.785 634.979 344.275C638.404 338.617 653.149 307.495 653.149 307.495L652.106 264.312L633.936 264.907Z" fill="#0254A9"/>
<path d="M648.234 278.756C648.234 278.756 648.234 328.64 650.021 337.574C651.809 346.509 675.192 391.479 675.192 391.479L679.809 398.031L691.128 391.479C691.128 391.479 688.596 373.908 683.979 360.06C679.362 346.211 672.213 340.255 673.404 334.894C674.596 329.533 676.681 307.942 675.192 294.093C673.702 280.245 670.128 264.163 670.128 264.163L646.298 264.61L648.234 278.756Z" fill="#346EC1"/>
<mask id="mask10_1_29" style="mask-type:luminance" maskUnits="userSpaceOnUse" x="646" y="264" width="46" height="135">
<path d="M648.234 278.756C648.234 278.756 648.234 328.64 650.021 337.574C651.809 346.509 675.192 391.479 675.192 391.479L679.809 398.031L691.128 391.479C691.128 391.479 688.596 373.908 683.979 360.06C679.362 346.211 672.213 340.255 673.404 334.894C674.596 329.533 676.681 307.942 675.192 294.093C673.702 280.245 670.128 264.163 670.128 264.163L646.298 264.61L648.234 278.756Z" fill="white"/>
</mask>
<g mask="url(#mask10_1_29)">
<path d="M688.894 384.778C688.894 384.778 683.383 364.08 681.447 359.762C679.511 355.443 669.681 338.617 669.681 335.043C669.681 331.469 672.809 316.281 672.809 308.388C672.809 300.496 665.66 273.544 665.66 273.544" stroke="#0254A9" stroke-width="0.5164" stroke-miterlimit="10"/>
</g>
<mask id="mask11_1_29" style="mask-type:luminance" maskUnits="userSpaceOnUse" x="646" y="264" width="46" height="135">
<path d="M648.234 278.756C648.234 278.756 648.234 328.64 650.021 337.574C651.809 346.509 675.192 391.479 675.192 391.479L679.809 398.031L691.128 391.479C691.128 391.479 688.596 373.908 683.979 360.06C679.362 346.211 672.213 340.255 673.404 334.894C674.596 329.533 676.681 307.942 675.192 294.093C673.702 280.245 670.128 264.163 670.128 264.163L646.298 264.61L648.234 278.756Z" fill="white"/>
</mask>
<g mask="url(#mask11_1_29)">
<path d="M657.319 274.14C657.319 274.14 657.17 274.437 657.17 275.182C657.17 275.778 657.021 276.82 657.319 277.862C657.468 278.905 657.617 280.394 658.064 281.883C658.362 283.372 658.958 285.01 659.851 286.499C661.638 289.626 664.617 291.413 666.702 292.158C667.745 292.455 668.787 292.604 669.383 292.753C669.979 292.753 670.426 292.753 670.426 292.753C670.426 292.604 668.936 292.604 666.851 291.711C664.766 290.966 662.085 289.179 660.447 286.201C659.553 284.712 658.958 283.223 658.66 281.734C658.213 280.245 658.064 278.905 657.766 277.862C657.468 276.82 657.468 275.927 657.468 275.182C657.468 274.586 657.319 274.14 657.319 274.14Z" fill="#0254A9"/>
</g>
<mask id="mask12_1_29" style="mask-type:luminance" maskUnits="userSpaceOnUse" x="646" y="264" width="46" height="135">
<path d="M648.234 278.756C648.234 278.756 648.234 328.64 650.021 337.574C651.809 346.509 675.192 391.479 675.192 391.479L679.809 398.031L691.128 391.479C691.128 391.479 688.596 373.908 683.979 360.06C679.362 346.211 672.213 340.255 673.404 334.894C674.596 329.533 676.681 307.942 675.192 294.093C673.702 280.245 670.128 264.163 670.128 264.163L646.298 264.61L648.234 278.756Z" fill="white"/>
</mask>
<g mask="url(#mask12_1_29)">
<path d="M641.681 273.395C641.681 273.395 641.681 273.842 642.426 274.289C643.17 274.586 644.213 274.586 645.404 274.586C647.936 274.586 651.362 274.437 655.085 274.289C658.958 274.14 662.383 273.991 664.766 273.842C667.298 273.693 668.787 273.544 668.787 273.395C668.787 273.246 667.298 273.246 664.766 273.246C662.234 273.246 658.809 273.395 655.085 273.544C651.362 273.693 647.787 273.842 645.404 273.991C644.213 274.14 643.17 274.14 642.574 273.842C641.83 273.842 641.83 273.395 641.681 273.395Z" fill="#0254A9"/>
</g>
<mask id="mask13_1_29" style="mask-type:luminance" maskUnits="userSpaceOnUse" x="646" y="264" width="46" height="135">
<path d="M648.234 278.756C648.234 278.756 648.234 328.64 650.021 337.574C651.809 346.509 675.192 391.479 675.192 391.479L679.809 398.031L691.128 391.479C691.128 391.479 688.596 373.908 683.979 360.06C679.362 346.211 672.213 340.255 673.404 334.894C674.596 329.533 676.681 307.942 675.192 294.093C673.702 280.245 670.128 264.163 670.128 264.163L646.298 264.61L648.234 278.756Z" fill="white"/>
</mask>
<g mask="url(#mask13_1_29)">
<path d="M638.255 270.119C638.255 270.268 640.043 270.119 642.872 270.119C646 269.97 649.723 269.97 653.894 269.821C658.064 269.672 661.787 269.672 664.915 269.523C667.745 269.375 669.532 269.375 669.532 269.226C669.532 269.226 669.085 269.077 668.34 269.077C667.596 269.077 666.404 268.928 665.064 268.928C662.234 268.928 658.362 268.928 654.043 269.077C649.723 269.226 645.851 269.375 643.021 269.672C641.681 269.821 640.489 269.821 639.745 269.97C638.702 270.119 638.255 270.119 638.255 270.119Z" fill="#0254A9"/>
</g>
<mask id="mask14_1_29" style="mask-type:luminance" maskUnits="userSpaceOnUse" x="646" y="264" width="46" height="135">
<path d="M648.234 278.756C648.234 278.756 648.234 328.64 650.021 337.574C651.809 346.509 675.192 391.479 675.192 391.479L679.809 398.031L691.128 391.479C691.128 391.479 688.596 373.908 683.979 360.06C679.362 346.211 672.213 340.255 673.404 334.894C674.596 329.533 676.681 307.942 675.192 294.093C673.702 280.245 670.128 264.163 670.128 264.163L646.298 264.61L648.234 278.756Z" fill="white"/>
</mask>
<g mask="url(#mask14_1_29)">
<path d="M660.894 268.779C660.745 268.779 660.596 269.97 660.745 271.459C660.745 272.948 661.043 274.14 661.192 274.14C661.34 274.14 661.489 272.948 661.34 271.459C661.34 269.97 661.043 268.779 660.894 268.779Z" fill="#0254A9"/>
</g>
<mask id="mask15_1_29" style="mask-type:luminance" maskUnits="userSpaceOnUse" x="646" y="264" width="46" height="135">
<path d="M648.234 278.756C648.234 278.756 648.234 328.64 650.021 337.574C651.809 346.509 675.192 391.479 675.192 391.479L679.809 398.031L691.128 391.479C691.128 391.479 688.596 373.908 683.979 360.06C679.362 346.211 672.213 340.255 673.404 334.894C674.596 329.533 676.681 307.942 675.192 294.093C673.702 280.245 670.128 264.163 670.128 264.163L646.298 264.61L648.234 278.756Z" fill="white"/>
</mask>
<g mask="url(#mask15_1_29)">
<path d="M653 267.439C652.851 267.439 652.702 269.077 652.851 271.013C653 272.948 653.149 274.586 653.298 274.586C653.447 274.586 653.596 272.948 653.447 271.013C653.447 268.928 653.149 267.439 653 267.439Z" fill="#0254A9"/>
</g>
<path d="M691.128 377.333L669.234 389.841C669.234 389.841 677.723 412.624 677.575 420.07C677.277 431.833 656.723 432.131 658.511 441.959C658.809 443.448 667.894 442.108 674.596 442.703C681.447 443.299 686.66 440.321 687.255 436.3C687.851 432.28 693.213 430.195 693.213 430.195L695.149 437.79L702.149 434.216L691.128 377.333Z" fill="#282E5B"/>
<path d="M626.043 392.521L601.319 384.183C601.319 384.183 597.596 414.411 591.638 419.176C578.979 429.302 560.66 431.535 562.447 438.683C562.745 440.172 565.723 441.959 575.702 441.512C578.979 441.363 588.66 441.065 591.34 438.087C594.021 434.96 599.681 436.003 599.681 436.003L599.532 442.257L614.723 442.108C614.277 428.557 620.383 411.284 626.043 392.521Z" fill="#282E5B"/>
<path d="M671.766 168.117C669.383 167.075 661.192 164.543 660.745 161.714C660.596 160.97 660.894 160.225 661.043 159.629C665.958 145.781 685.617 145.781 696.192 152.482C699.468 154.566 702.447 155.609 706.468 154.864C710.489 154.12 714.213 152.482 718.234 152.035C727.17 150.993 736.702 157.247 739.83 165.586C743.851 176.158 736.255 184.646 735.511 195.069C735.213 198.197 735.213 201.77 736.553 204.748C737.447 206.833 738.043 207.28 735.362 208.024C733.575 208.471 731.638 208.322 729.851 208.024C727.021 207.727 724.043 207.28 721.66 205.791C717.192 202.962 717.341 198.345 716.745 193.729C715.851 187.177 715.106 180.774 714.213 174.222C713.766 170.946 710.489 162.31 706.766 161.863C702.447 161.416 702.745 162.608 702.745 162.608C703.787 165.437 702.894 171.095 702.298 173.925C701.404 178.541 699.021 183.008 695.745 186.433C691.872 190.453 686.511 193.134 681 193.729C676.979 194.176 672.213 191.347 668.341 190.007L674 175.265L671.766 168.117Z" fill="#282E5B"/>
<path d="M662.234 162.608C661.787 163.948 661.043 165.883 660.745 166.479C660.447 166.926 656.128 169.755 655.383 170.946C654.638 172.138 657.468 173.031 657.468 173.031C657.319 173.031 655.83 178.838 655.681 179.434C655.532 181.966 657.468 184.795 659.553 186.135C662.085 187.624 665.362 187.624 667.894 186.135C667.298 188.518 666.553 190.9 665.809 193.283L677.575 197.601C677.575 197.601 678.17 189.113 679.362 186.284C680.553 183.455 683.234 176.307 683.234 176.307C683.234 176.307 684.426 176.605 685.617 175.563C686.809 174.52 687.553 171.244 685.468 170.5C683.383 169.755 682.043 170.946 681.745 171.84C680.255 171.691 678.915 167.968 678.468 166.926C676.979 163.352 677.872 159.778 678.617 156.204C678.468 156.651 676.234 157.396 675.936 157.694C674.596 158.736 674 160.672 673.404 162.161C673.106 163.054 672.958 163.799 672.809 164.692C672.511 166.479 672.958 167.521 670.723 166.777C667.745 165.437 665.064 164.097 662.234 162.608Z" fill="#D08B73"/>
<mask id="mask16_1_29" style="mask-type:luminance" maskUnits="userSpaceOnUse" x="655" y="156" width="32" height="42">
<path d="M662.234 162.608C661.787 163.948 661.043 165.883 660.745 166.479C660.447 166.926 656.128 169.755 655.383 170.946C654.638 172.138 657.468 173.031 657.468 173.031C657.319 173.031 655.83 178.838 655.681 179.434C655.532 181.966 657.468 184.795 659.553 186.135C662.085 187.624 665.362 187.624 667.894 186.135C667.298 188.518 666.553 190.9 665.809 193.283L677.575 197.601C677.575 197.601 678.17 189.113 679.362 186.284C680.553 183.455 683.234 176.307 683.234 176.307C683.234 176.307 684.426 176.605 685.617 175.563C686.809 174.52 687.553 171.244 685.468 170.5C683.383 169.755 682.043 170.946 681.745 171.84C680.255 171.691 678.915 167.968 678.468 166.926C676.979 163.352 677.872 159.778 678.617 156.204C678.468 156.651 676.234 157.396 675.936 157.694C674.596 158.736 674 160.672 673.404 162.161C673.106 163.054 672.958 163.799 672.809 164.692C672.511 166.479 672.958 167.521 670.723 166.777C667.745 165.437 665.064 164.097 662.234 162.608Z" fill="white"/>
</mask>
<g mask="url(#mask16_1_29)">
<path d="M677.872 180.328C677.575 180.03 674.894 182.263 671.17 184.497C667.447 186.731 664.319 188.22 664.319 188.517C664.468 188.815 667.894 187.922 671.766 185.539C675.638 183.306 678.021 180.625 677.872 180.328Z" fill="#BC6C56"/>
</g>
<mask id="mask17_1_29" style="mask-type:luminance" maskUnits="userSpaceOnUse" x="655" y="156" width="32" height="42">
<path d="M662.234 162.608C661.787 163.948 661.043 165.883 660.745 166.479C660.447 166.926 656.128 169.755 655.383 170.946C654.638 172.138 657.468 173.031 657.468 173.031C657.319 173.031 655.83 178.838 655.681 179.434C655.532 181.966 657.468 184.795 659.553 186.135C662.085 187.624 665.362 187.624 667.894 186.135C667.298 188.518 666.553 190.9 665.809 193.283L677.575 197.601C677.575 197.601 678.17 189.113 679.362 186.284C680.553 183.455 683.234 176.307 683.234 176.307C683.234 176.307 684.426 176.605 685.617 175.563C686.809 174.52 687.553 171.244 685.468 170.5C683.383 169.755 682.043 170.946 681.745 171.84C680.255 171.691 678.915 167.968 678.468 166.926C676.979 163.352 677.872 159.778 678.617 156.204C678.468 156.651 676.234 157.396 675.936 157.694C674.596 158.736 674 160.672 673.404 162.161C673.106 163.054 672.958 163.799 672.809 164.692C672.511 166.479 672.958 167.521 670.723 166.777C667.745 165.437 665.064 164.097 662.234 162.608Z" fill="white"/>
</mask>
<g mask="url(#mask17_1_29)">
<path d="M683.383 173.627C683.234 173.627 683.383 174.073 683.979 174.371C684.277 174.52 684.575 174.52 685.021 174.222C685.319 174.073 685.617 173.627 685.766 173.18C685.915 172.733 685.915 172.287 685.766 171.989C685.617 171.84 685.468 171.542 685.319 171.542C685.17 171.542 684.872 171.542 684.872 171.542C684.426 171.691 684.128 171.989 684.277 171.989C684.277 172.138 684.575 172.138 685.021 171.989C685.17 171.989 685.319 171.989 685.319 172.138C685.319 172.287 685.319 172.584 685.319 172.882C685.17 173.478 684.872 173.627 684.426 173.627C683.681 173.776 683.532 173.627 683.383 173.627Z" fill="#BC6C56"/>
</g>
<mask id="mask18_1_29" style="mask-type:luminance" maskUnits="userSpaceOnUse" x="655" y="156" width="32" height="42">
<path d="M662.234 162.608C661.787 163.948 661.043 165.883 660.745 166.479C660.447 166.926 656.128 169.755 655.383 170.946C654.638 172.138 657.468 173.031 657.468 173.031C657.319 173.031 655.83 178.838 655.681 179.434C655.532 181.966 657.468 184.795 659.553 186.135C662.085 187.624 665.362 187.624 667.894 186.135C667.298 188.518 666.553 190.9 665.809 193.283L677.575 197.601C677.575 197.601 678.17 189.113 679.362 186.284C680.553 183.455 683.234 176.307 683.234 176.307C683.234 176.307 684.426 176.605 685.617 175.563C686.809 174.52 687.553 171.244 685.468 170.5C683.383 169.755 682.043 170.946 681.745 171.84C680.255 171.691 678.915 167.968 678.468 166.926C676.979 163.352 677.872 159.778 678.617 156.204C678.468 156.651 676.234 157.396 675.936 157.694C674.596 158.736 674 160.672 673.404 162.161C673.106 163.054 672.958 163.799 672.809 164.692C672.511 166.479 672.958 167.521 670.723 166.777C667.745 165.437 665.064 164.097 662.234 162.608Z" fill="white"/>
</mask>
<g mask="url(#mask18_1_29)">
<path d="M681.596 152.928C681.596 152.78 680.106 153.524 678.021 155.162C677.575 155.609 676.979 156.056 676.383 156.651C676.085 156.949 675.787 157.247 675.638 157.545C675.34 157.842 675.192 158.289 675.043 158.736C674.596 159.48 674.298 160.374 674 161.267C673.851 161.714 673.702 162.161 673.553 162.607C673.404 163.054 673.255 163.65 673.255 164.097C673.106 165.139 672.809 165.883 672.064 166.181C671.319 166.479 670.426 166.181 669.681 165.883C668.043 165.288 666.851 164.394 665.809 163.65C664.766 162.905 663.872 162.31 663.128 162.012C662.383 161.863 661.936 162.012 661.936 162.012C661.936 162.012 662.383 162.012 662.979 162.31C663.575 162.607 664.468 163.203 665.511 164.097C666.553 164.99 667.745 165.883 669.383 166.628C670.128 166.926 671.17 167.373 672.213 166.926C672.809 166.777 673.255 166.33 673.404 165.735C673.702 165.288 673.702 164.692 673.851 164.245C674 163.799 674 163.352 674.149 162.905C674.298 162.459 674.447 162.012 674.596 161.565C674.894 160.672 675.192 159.778 675.638 159.034C675.787 158.587 675.936 158.289 676.234 157.991C676.532 157.694 676.681 157.396 676.979 157.098C677.426 156.502 677.872 156.056 678.468 155.609C680.404 153.971 681.745 153.077 681.596 152.928Z" fill="#BC6C56"/>
</g>
<path d="M748.766 205.344C748.766 205.195 748.021 205.046 746.979 204.302C745.787 203.706 744.149 202.515 742.66 200.728C741.17 198.941 739.83 196.41 739.383 193.283C738.787 190.156 739.085 186.731 739.979 183.157C740.426 181.37 741.17 179.732 741.468 177.945C741.766 176.158 741.915 174.371 741.766 172.733C741.468 169.457 740.128 166.628 738.787 164.543C737.447 162.459 735.809 161.118 734.766 160.374C733.575 159.629 732.83 159.332 732.83 159.332C732.681 159.48 735.511 160.97 738.043 164.99C739.234 167.075 740.277 169.755 740.575 172.733C740.723 174.222 740.575 175.86 740.277 177.498C739.979 179.136 739.234 180.774 738.787 182.71C737.745 186.433 737.596 190.155 738.192 193.431C738.787 196.707 740.277 199.388 742.064 201.324C743.702 203.259 745.489 204.302 746.83 204.748C747.872 205.344 748.766 205.493 748.766 205.344Z" fill="#282E5B"/>
<path d="M673.702 186.88C673.702 187.028 674.596 187.028 675.936 186.433C677.277 185.986 678.915 184.944 680.404 183.455C681.894 181.966 682.787 180.179 683.234 178.838C683.681 177.498 683.681 176.605 683.532 176.605C683.234 176.456 682.489 179.881 679.66 182.71C676.979 185.688 673.702 186.582 673.702 186.88Z" fill="#282E5B"/>
<path d="M706.766 271.161C706.766 271.161 694.106 306.602 694.702 313.898C695.298 321.195 702.447 325.364 702.745 327.449C702.894 328.789 700.511 330.278 699.468 329.831C699.021 329.682 698.723 329.385 698.426 329.087C696.787 327.598 695.298 325.811 693.66 324.322C692.617 323.428 692.319 323.428 692.319 324.768C692.319 325.513 692.766 329.682 692.17 330.129C691.724 330.427 690.532 331.32 690.532 329.98C690.383 328.64 689.341 317.174 689.638 314.196C689.936 311.367 689.638 308.537 689.638 305.708C689.638 301.985 689.787 298.263 690.085 294.391C690.532 289.626 691.128 284.861 692.17 280.096C693.064 275.778 693.66 270.864 696.341 267.29C700.511 261.036 706.766 271.161 706.766 271.161Z" fill="#D08B73"/>
<path d="M679.511 219.788C680.404 227.383 681 235.87 680.702 245.251C680.553 249.719 680.255 254.037 679.809 258.058C684.128 259.1 687.106 260.589 689.043 261.78C693.511 264.61 695 267.141 699.617 269.226C702.447 270.566 705.128 270.864 706.766 271.161C707.362 251.952 703.936 237.359 701.106 228.574C696.489 214.13 691.277 207.727 688.447 204.6C683.979 199.686 679.213 196.559 675.936 194.623C675.787 194.772 675.638 194.921 675.638 195.069C670.872 201.621 675.638 212.79 679.511 219.788Z" fill="#12A189"/>
<path d="M610.255 191.049C610.255 191.049 599.532 177.2 598.936 173.776C598.34 170.351 598.192 166.628 598.192 165.586C598.34 164.543 599.532 161.565 599.83 159.48C600.128 157.396 598.489 154.566 598.192 154.269C598.043 153.971 598.34 147.717 597.596 147.27C596.851 146.674 595.362 146.525 595.809 154.12C591.936 153.375 590.149 153.822 590 156.502C590 159.332 592.681 166.33 592.681 166.33C592.681 166.33 592.979 170.946 593.723 174.222C594.617 177.349 597.894 194.921 605.936 201.77C612.043 199.983 610.255 191.049 610.255 191.049Z" fill="#D08B73"/>
<path d="M674.894 192.836C673.553 192.538 672.064 192.24 670.724 191.942C666.106 191.347 661.489 191.347 656.872 191.645C653 191.942 649.426 191.645 645.702 191.645C640.787 191.496 635.872 191.347 630.958 191.049C628.128 190.9 625 190.9 622.319 190.156C615.915 188.369 614.872 186.433 612.043 187.028C608.319 187.773 607.277 192.24 603.255 199.388C601.17 202.962 598.043 207.876 593.426 213.236C601.766 215.47 612.043 216.661 623.66 217.555C631.106 218.15 636.021 218.001 638.702 217.108C638.702 217.108 639.447 219.193 640.192 221.873C640.192 221.873 641.383 226.638 641.83 231.403C642.277 236.764 640.192 250.314 632.447 266.694C634.532 266.099 637.809 265.205 642.128 265.205C649.575 265.205 653.149 267.588 661.489 268.183C663.872 268.332 667.596 268.481 672.213 267.737C672.362 265.503 673.851 264.014 673.702 261.929C673.553 259.844 672.958 257.313 674 255.377C674.447 254.633 673.255 252.25 674 250.314C676.085 244.656 680.702 236.317 683.383 232.743C685.021 230.659 687.702 226.34 690.234 220.086C692.617 214.13 693.362 207.429 689.489 201.77C686.064 197.303 680.553 194.474 674.894 192.836Z" fill="#14B6A1"/>
<path d="M638.702 217.406C638.702 217.406 643.021 216.512 649.872 213.385C642.128 221.426 642.575 231.403 641.681 236.913C640.192 220.682 638.702 217.406 638.702 217.406Z" fill="#12A189"/>
<path d="M700 435.258C708.787 435.854 715.787 434.365 719.957 433.322C723.681 432.429 726.511 431.238 728.298 430.493C734.404 427.962 748.404 421.112 747.809 414.709C747.213 408.604 733.66 406.221 731.872 405.923C736.192 405.774 743.489 405.03 751.383 400.86C752.872 400.116 757.192 397.882 761.064 394.904C763 393.415 764.787 391.777 766.128 389.99C766.723 389.097 767.319 388.203 767.617 387.161C767.915 386.267 768.064 385.225 768.064 384.183C767.915 378.673 760.617 374.801 751.085 374.206C752.128 373.015 753.617 371.079 755.106 369.143C756.596 367.058 757.936 364.676 759.277 362.144C759.574 361.549 760.319 360.06 761.213 358.273C762.106 356.486 763 354.401 763.894 352.167C765.83 347.7 767.915 342.191 765.681 338.915C764.191 336.83 761.66 335.936 759.128 335.639C756.596 335.341 753.915 335.639 752.426 335.936C750.192 336.383 747.957 337.128 746.021 338.17C744.085 339.212 742.447 340.553 740.957 341.744C738.128 344.275 736.34 346.658 735.298 347.998C732.021 352.614 731.426 353.954 730.532 356.635C729.34 350.827 727.106 346.658 724.574 344.126C721.894 341.595 718.915 340.553 716.234 340.999C715.34 341.148 714.596 341.446 713.851 341.893C713.106 342.339 712.362 342.935 711.617 343.829C710.128 345.467 708.936 347.551 707.894 349.636C705.809 353.954 704.468 358.273 704.17 359.464C701.043 370.632 703.128 379.864 704.766 384.332C702.979 380.907 696.723 369.441 690.915 371.228C687.638 372.27 685.255 377.482 683.915 383.587C682.575 389.692 682.128 396.542 682.128 400.86C682.128 403.243 682.277 408.008 683.766 413.815C685.851 422.303 688.979 427.664 689.723 428.855C691.064 431.089 692.404 433.024 693.447 434.216C694.936 434.811 697.17 435.109 700 435.258Z" fill="#F29C1F"/>
<path d="M687.787 444.788C687.787 444.788 688.681 443.299 690.021 440.619C690.766 439.279 691.511 437.641 692.553 435.854C693.596 434.067 694.787 431.982 696.128 429.748C701.34 420.814 708.936 409.199 716.979 397.733C725.17 386.267 733.809 374.801 740.809 365.718C744.234 361.251 747.213 357.23 749.447 354.252C751.83 351.274 753.468 349.338 754.064 348.594" stroke="#805333" stroke-width="1.6688" stroke-miterlimit="10" stroke-linecap="round" stroke-linejoin="round"/>
<path d="M726.66 384.629C724.277 373.461 722.043 362.144 719.957 350.976" stroke="#805333" stroke-width="1.6688" stroke-miterlimit="10" stroke-linecap="round" stroke-linejoin="round"/>
<path d="M723.979 388.501C735.149 387.459 746.17 386.714 757.34 386.118" stroke="#805333" stroke-width="1.6688" stroke-miterlimit="10" stroke-linecap="round" stroke-linejoin="round"/>
<path d="M702.085 419.325C698.957 409.05 696.277 398.478 693.894 387.756" stroke="#805333" stroke-width="1.6688" stroke-miterlimit="10" stroke-linecap="round" stroke-linejoin="round"/>
<path d="M700.298 422.899C712.064 420.814 723.681 419.474 735.298 418.432" stroke="#805333" stroke-width="1.6688" stroke-miterlimit="10" stroke-linecap="round" stroke-linejoin="round"/>
<path d="M682.277 442.852C684.809 438.087 688.383 434.365 691.362 431.535C692.702 430.344 694.043 429.004 695.532 427.664C696.723 426.473 697.915 425.43 699.106 424.239C704.468 419.027 710.128 413.815 715.34 408.604C720.702 403.094 726.362 396.542 733.362 389.543C740.362 382.545 747.957 375.546 756.298 368.696C784.298 345.764 825.255 320.301 830.766 326.555C836.277 332.809 806.043 369.441 779.681 394.904C772.085 402.201 764.489 408.901 757.191 414.858C749.894 420.963 742.298 426.919 734.255 431.684C726.213 436.449 718.617 439.725 711.766 442.406C704.468 445.533 698.213 446.128 693.149 450L682.277 442.852Z" fill="#14B6A1"/>
<path d="M688.234 445.831C691.213 442.108 694.787 439.725 698.064 437.79L702.532 435.109L703.574 434.514L704.766 433.769L707 432.28C712.957 428.408 718.766 424.686 724.277 420.367C729.787 416.198 735 411.433 740.213 406.668C745.426 401.903 750.638 397.138 756 392.373C777.149 373.461 798.596 354.848 820.043 336.383" stroke="#148B7A" stroke-width="1.352" stroke-miterlimit="10" stroke-linecap="round" stroke-linejoin="round"/>
<path d="M791.596 360.804L803.659 361.4" stroke="#148B7A" stroke-width="1.352" stroke-miterlimit="10" stroke-linecap="round" stroke-linejoin="round"/>
<path d="M784 367.356L781.915 354.699" stroke="#148B7A" stroke-width="1.352" stroke-miterlimit="10" stroke-linecap="round" stroke-linejoin="round"/>
<path d="M767.617 381.8L778.936 385.076" stroke="#148B7A" stroke-width="1.352" stroke-miterlimit="10" stroke-linecap="round" stroke-linejoin="round"/>
<path d="M755.851 392.373L755.106 377.482" stroke="#148B7A" stroke-width="1.352" stroke-miterlimit="10" stroke-linecap="round" stroke-linejoin="round"/>
<path d="M742.745 404.285C747.809 405.179 752.723 406.072 757.787 406.966" stroke="#148B7A" stroke-width="1.352" stroke-miterlimit="10" stroke-linecap="round" stroke-linejoin="round"/>
<path d="M721.447 422.601C721.894 419.027 722.191 415.305 722.34 411.731" stroke="#148B7A" stroke-width="1.352" stroke-miterlimit="10" stroke-linecap="round" stroke-linejoin="round"/>
<path d="M52.7234 445.235H754.362" stroke="#363A69" stroke-width="5.0228" stroke-miterlimit="10" stroke-linecap="round" stroke-linejoin="round"/>
</g>
<defs>
<clipPath id="clip0_1_29">
<rect width="868" height="450" fill="white"/>
</clipPath>
</defs>
</svg>
